STARTFONT 2.1
COMMENT
COMMENT Converted from OpenType font "BebasNeue-Regular.ttf" by "otf2bdf 3.0".
COMMENT
FONT -FreeType-Bebas Neue-Medium-R-Normal--30-300-72-72-P-102-ISO10646-1
SIZE 30 72 72
FONTBOUNDINGBOX 30 33 -6 -6
STARTPROPERTIES 19
FOUNDRY "FreeType"
FAMILY_NAME "Bebas Neue"
WEIGHT_NAME "Medium"
SLANT "R"
SETWIDTH_NAME "Normal"
ADD_STYLE_NAME ""
PIXEL_SIZE 30
POINT_SIZE 300
RESOLUTION_X 72
RESOLUTION_Y 72
SPACING "P"
AVERAGE_WIDTH 102
CHARSET_REGISTRY "ISO10646"
CHARSET_ENCODING "1"
FONT_ASCENT 27
FONT_DESCENT 9
COPYRIGHT "Copyright 2019 The Bebas Neue Project Authors (https://github.com/dharmatype/Bebas-Neue)"
_OTF_FONTFILE "BebasNeue-Regular.ttf"
_OTF_PSNAME "BebasNeue-Regular"
ENDPROPERTIES
CHARS 461
STARTCHAR 000D
ENCODING 13
SWIDTH 166 0
DWIDTH 5 0
BBX 0 0 0 0
BITMAP
ENDCHAR
STARTCHAR 0020
ENCODING 32
SWIDTH 166 0
DWIDTH 5 0
BBX 0 0 0 0
BITMAP
ENDCHAR
STARTCHAR 0021
ENCODING 33
SWIDTH 200 0
DWIDTH 6 0
BBX 4 21 1 0
BITMAP
F0
F0
F0
F0
F0
F0
F0
F0
F0
70
70
70
70
60
60
00
00
00
70
70
70
ENDCHAR
STARTCHAR 0022
ENCODING 34
SWIDTH 333 0
DWIDTH 10 0
BBX 8 7 1 14
BITMAP
F7
E7
E7
67
66
66
66
ENDCHAR
STARTCHAR 0023
ENCODING 35
SWIDTH 400 0
DWIDTH 12 0
BBX 12 21 0 0
BITMAP
1CE0
1CE0
1CE0
1CE0
1CC0
7FF0
7FF0
19C0
19C0
19C0
39C0
39C0
39C0
7FE0
FFE0
3980
3180
3380
3380
7380
7380
ENDCHAR
STARTCHAR 0024
ENCODING 36
SWIDTH 400 0
DWIDTH 12 0
BBX 10 24 1 -2
BITMAP
0C00
0C00
3F00
7F80
7F80
F3C0
E1C0
F1C0
F000
7800
7C00
3E00
1F00
0780
0380
03C0
E1C0
E1C0
F3C0
7F80
7F80
3F00
0C00
0C00
ENDCHAR
STARTCHAR 0025
ENCODING 37
SWIDTH 600 0
DWIDTH 18 0
BBX 16 21 1 0
BITMAP
7818
FC30
CC30
CC70
CC60
CC60
CCC0
CCC0
CCC0
CD9C
FDBE
3BF7
0363
0363
0663
0663
0E63
0C63
0C67
183E
183C
ENDCHAR
STARTCHAR 0026
ENCODING 38
SWIDTH 433 0
DWIDTH 13 0
BBX 11 21 1 0
BITMAP
3F80
7F80
7F80
F000
E000
E000
E1C0
71C0
7FE0
3FE0
7FE0
F1C0
E1C0
E1C0
E1C0
E1C0
E1C0
F3C0
FFC0
7DC0
3DC0
ENDCHAR
STARTCHAR 0027
ENCODING 39
SWIDTH 200 0
DWIDTH 6 0
BBX 4 7 1 14
BITMAP
F0
E0
E0
60
60
60
60
ENDCHAR
STARTCHAR 0028
ENCODING 40
SWIDTH 266 0
DWIDTH 8 0
BBX 5 24 2 -1
BITMAP
38
F8
F8
E0
E0
E0
E0
E0
E0
E0
E0
E0
E0
E0
E0
E0
E0
E0
E0
E0
E0
F8
F8
78
ENDCHAR
STARTCHAR 0029
ENCODING 41
SWIDTH 266 0
DWIDTH 8 0
BBX 6 24 1 -1
BITMAP
F0
F8
F8
3C
3C
3C
3C
3C
3C
3C
3C
3C
3C
3C
3C
3C
3C
3C
3C
3C
3C
F8
F8
F0
ENDCHAR
STARTCHAR 002A
ENCODING 42
SWIDTH 433 0
DWIDTH 13 0
BBX 12 11 0 10
BITMAP
0700
0700
0600
6630
7BF0
BFE0
0700
0D80
19C0
38E0
1080
ENDCHAR
STARTCHAR 002B
ENCODING 43
SWIDTH 400 0
DWIDTH 12 0
BBX 10 10 1 5
BITMAP
0C00
0C00
0C00
0C00
FFC0
FFC0
0C00
0C00
0C00
0C00
ENDCHAR
STARTCHAR 002C
ENCODING 44
SWIDTH 200 0
DWIDTH 6 0
BBX 3 6 1 -3
BITMAP
E0
E0
E0
60
60
C0
ENDCHAR
STARTCHAR 002D
ENCODING 45
SWIDTH 266 0
DWIDTH 8 0
BBX 6 3 1 9
BITMAP
FC
FC
FC
ENDCHAR
STARTCHAR 002E
ENCODING 46
SWIDTH 200 0
DWIDTH 6 0
BBX 3 3 1 0
BITMAP
E0
E0
E0
ENDCHAR
STARTCHAR 002F
ENCODING 47
SWIDTH 400 0
DWIDTH 12 0
BBX 11 21 0 0
BITMAP
00E0
00E0
00C0
01C0
01C0
0380
0380
0300
0700
0700
0E00
0E00
0C00
1C00
1C00
3800
3800
3800
7000
7000
E000
ENDCHAR
STARTCHAR 0030
ENCODING 48
SWIDTH 400 0
DWIDTH 12 0
BBX 10 21 1 0
BITMAP
3F00
7F80
FFC0
F3C0
E1C0
E1C0
E1C0
E1C0
E1C0
E1C0
E1C0
E1C0
E1C0
E1C0
E1C0
E1C0
E1C0
F3C0
FFC0
7F80
3E00
ENDCHAR
STARTCHAR 0031
ENCODING 49
SWIDTH 400 0
DWIDTH 12 0
BBX 7 21 2 0
BITMAP
06
0E
1E
FE
FE
0E
0E
0E
0E
0E
0E
0E
0E
0E
0E
0E
0E
0E
0E
0E
0E
ENDCHAR
STARTCHAR 0032
ENCODING 50
SWIDTH 400 0
DWIDTH 12 0
BBX 10 21 1 0
BITMAP
1F00
7F80
7FC0
F3C0
E1C0
E1C0
E1C0
03C0
0380
0780
0F00
1E00
1C00
3800
7800
7000
F000
E000
FFC0
FFC0
FFC0
ENDCHAR
STARTCHAR 0033
ENCODING 51
SWIDTH 400 0
DWIDTH 12 0
BBX 10 21 1 0
BITMAP
3E00
7F80
FF80
F3C0
E3C0
E3C0
03C0
0380
1F80
1F00
1F80
0380
03C0
01C0
E1C0
E1C0
E3C0
F3C0
FF80
7F80
3E00
ENDCHAR
STARTCHAR 0034
ENCODING 52
SWIDTH 400 0
DWIDTH 12 0
BBX 12 21 0 0
BITMAP
03C0
03C0
07C0
07C0
07C0
0FC0
0DC0
1DC0
1DC0
39C0
39C0
31C0
71C0
71C0
FFF0
FFF0
FFF0
01C0
01C0
01C0
01C0
ENDCHAR
STARTCHAR 0035
ENCODING 53
SWIDTH 400 0
DWIDTH 12 0
BBX 10 21 1 0
BITMAP
7F80
7F80
7F80
7000
F000
F000
E700
FF80
FFC0
F3C0
E1C0
01C0
01C0
01C0
E1C0
E1C0
E1C0
F3C0
7F80
7F80
1E00
ENDCHAR
STARTCHAR 0036
ENCODING 54
SWIDTH 400 0
DWIDTH 12 0
BBX 10 21 1 0
BITMAP
1F00
7F80
7FC0
F1C0
E1C0
E000
E000
E700
EF80
FFC0
F3C0
E1C0
E1C0
E1C0
E1C0
E1C0
E1C0
F3C0
7FC0
7F80
1F00
ENDCHAR
STARTCHAR 0037
ENCODING 55
SWIDTH 400 0
DWIDTH 12 0
BBX 10 21 1 0
BITMAP
FFC0
FFC0
FFC0
01C0
0380
0380
0380
0780
0700
0700
0F00
0E00
0E00
0E00
1E00
1C00
1C00
3C00
3800
3800
7800
ENDCHAR
STARTCHAR 0038
ENCODING 56
SWIDTH 400 0
DWIDTH 12 0
BBX 10 21 1 0
BITMAP
3F00
7F80
FFC0
F3C0
E1C0
E1C0
E1C0
F3C0
7F80
3F00
7F80
F3C0
E1C0
E1C0
E1C0
E1C0
E1C0
F3C0
FFC0
7F80
3F00
ENDCHAR
STARTCHAR 0039
ENCODING 57
SWIDTH 400 0
DWIDTH 12 0
BBX 10 21 1 0
BITMAP
3E00
7F80
FF80
F3C0
E1C0
E1C0
E1C0
E1C0
E1C0
F3C0
FFC0
7DC0
39C0
01C0
01C0
E1C0
E1C0
F3C0
FF80
7F80
3E00
ENDCHAR
STARTCHAR 003A
ENCODING 58
SWIDTH 200 0
DWIDTH 6 0
BBX 3 14 1 0
BITMAP
E0
E0
E0
00
00
00
00
00
00
00
00
E0
E0
E0
ENDCHAR
STARTCHAR 003B
ENCODING 59
SWIDTH 200 0
DWIDTH 6 0
BBX 3 17 1 -3
BITMAP
E0
E0
E0
00
00
00
00
00
00
00
00
E0
E0
E0
60
60
C0
ENDCHAR
STARTCHAR 003C
ENCODING 60
SWIDTH 400 0
DWIDTH 12 0
BBX 9 11 1 5
BITMAP
0080
0180
0780
3F00
F800
E000
F800
3F00
0780
0180
0080
ENDCHAR
STARTCHAR 003D
ENCODING 61
SWIDTH 400 0
DWIDTH 12 0
BBX 10 7 1 7
BITMAP
FFC0
FFC0
0000
0000
0000
FFC0
FFC0
ENDCHAR
STARTCHAR 003E
ENCODING 62
SWIDTH 400 0
DWIDTH 12 0
BBX 9 11 2 5
BITMAP
8000
C000
F000
7E00
0F80
0380
0F80
7E00
F000
C000
8000
ENDCHAR
STARTCHAR 003F
ENCODING 63
SWIDTH 366 0
DWIDTH 11 0
BBX 9 21 1 0
BITMAP
3E00
7F00
FF80
E380
E380
E380
E380
0380
0780
0F00
0E00
1E00
1C00
1C00
1800
1800
0000
0000
3C00
3C00
3C00
ENDCHAR
STARTCHAR 0040
ENCODING 64
SWIDTH 700 0
DWIDTH 21 0
BBX 19 24 1 -2
BITMAP
01FC00
07FF00
0FFF80
1F03C0
3C01C0
3800E0
71EEE0
73EC60
E3FC60
E39C60
E71C60
E71CE0
E71CE0
E71CC0
E73CC0
E7FF80
E7DF80
E3DE00
700000
780100
3C0700
3FFF00
0FFE00
03F800
ENDCHAR
STARTCHAR 0041
ENCODING 65
SWIDTH 400 0
DWIDTH 12 0
BBX 12 21 0 0
BITMAP
0F00
0F00
1F80
1F80
1F80
1F80
1B80
1B80
39C0
39C0
39C0
39C0
39C0
39C0
7FE0
7FE0
7FE0
70E0
70E0
70E0
F0F0
ENDCHAR
STARTCHAR 0042
ENCODING 66
SWIDTH 400 0
DWIDTH 12 0
BBX 10 21 1 0
BITMAP
FF00
FF80
FFC0
F3C0
F1C0
F1C0
F1C0
F1C0
F3C0
FF80
FF80
FFC0
F1C0
F1C0
F1C0
F1C0
F1C0
F1C0
FFC0
FF80
FF00
ENDCHAR
STARTCHAR 0043
ENCODING 67
SWIDTH 366 0
DWIDTH 11 0
BBX 10 21 1 0
BITMAP
3E00
7F80
FF80
F3C0
E1C0
E1C0
E1C0
E000
E000
E000
E000
E000
E000
E1C0
E1C0
E1C0
E1C0
F3C0
FF80
7F80
3E00
ENDCHAR
STARTCHAR 0044
ENCODING 68
SWIDTH 400 0
DWIDTH 12 0
BBX 10 21 1 0
BITMAP
FF00
FF80
FFC0
F3C0
F1C0
F1C0
F1C0
F1C0
F1C0
F1C0
F1C0
F1C0
F1C0
F1C0
F1C0
F1C0
F1C0
F3C0
FFC0
FF80
FF00
ENDCHAR
STARTCHAR 0045
ENCODING 69
SWIDTH 366 0
DWIDTH 11 0
BBX 9 21 1 0
BITMAP
FF80
FF80
FF80
F000
F000
F000
F000
F000
F000
FF00
FF00
FF00
F000
F000
F000
F000
F000
F000
FF80
FF80
FF80
ENDCHAR
STARTCHAR 0046
ENCODING 70
SWIDTH 333 0
DWIDTH 10 0
BBX 9 21 1 0
BITMAP
FF80
FF80
FF80
F000
F000
F000
F000
F000
F000
FF00
FF00
FF00
F000
F000
F000
F000
F000
F000
F000
F000
F000
ENDCHAR
STARTCHAR 0047
ENCODING 71
SWIDTH 400 0
DWIDTH 12 0
BBX 10 21 1 0
BITMAP
3E00
7F80
FF80
F3C0
E1C0
E1C0
E1C0
E000
E000
E7C0
E7C0
E7C0
E1C0
E1C0
E1C0
E1C0
E1C0
F3C0
FF80
7F80
3E00
ENDCHAR
STARTCHAR 0048
ENCODING 72
SWIDTH 433 0
DWIDTH 13 0
BBX 10 21 1 0
BITMAP
F1C0
F1C0
F1C0
F1C0
F1C0
F1C0
F1C0
F1C0
F1C0
FFC0
FFC0
FFC0
F1C0
F1C0
F1C0
F1C0
F1C0
F1C0
F1C0
F1C0
F1C0
ENDCHAR
STARTCHAR 0049
ENCODING 73
SWIDTH 200 0
DWIDTH 6 0
BBX 4 21 1 0
BITMAP
F0
F0
F0
F0
F0
F0
F0
F0
F0
F0
F0
F0
F0
F0
F0
F0
F0
F0
F0
F0
F0
ENDCHAR
STARTCHAR 004A
ENCODING 74
SWIDTH 266 0
DWIDTH 8 0
BBX 7 21 0 0
BITMAP
0E
0E
0E
0E
0E
0E
0E
0E
0E
0E
0E
0E
0E
0E
0E
0E
1E
1E
FC
FC
F8
ENDCHAR
STARTCHAR 004B
ENCODING 75
SWIDTH 400 0
DWIDTH 12 0
BBX 11 21 1 0
BITMAP
F1E0
F1C0
F1C0
F380
F380
F700
F700
FE00
FE00
FF00
FF00
FF00
F780
F780
F380
F380
F3C0
F1C0
F1C0
F1E0
F1E0
ENDCHAR
STARTCHAR 004C
ENCODING 76
SWIDTH 333 0
DWIDTH 10 0
BBX 9 21 1 0
BITMAP
F000
F000
F000
F000
F000
F000
F000
F000
F000
F000
F000
F000
F000
F000
F000
F000
F000
F000
FF80
FF80
FF80
ENDCHAR
STARTCHAR 004D
ENCODING 77
SWIDTH 533 0
DWIDTH 16 0
BBX 14 21 1 0
BITMAP
F87C
F87C
F87C
F87C
FC7C
FCFC
FCFC
ECDC
ECDC
ECDC
ECDC
EEDC
EFDC
EF9C
E79C
E79C
E79C
E79C
E79C
E79C
E71C
ENDCHAR
STARTCHAR 004E
ENCODING 78
SWIDTH 433 0
DWIDTH 13 0
BBX 11 21 1 0
BITMAP
F8E0
F8E0
F8E0
F8E0
FCE0
FCE0
FCE0
ECE0
EEE0
EEE0
EEE0
E6E0
E7E0
E7E0
E7E0
E3E0
E3E0
E3E0
E1E0
E1E0
E1E0
ENDCHAR
STARTCHAR 004F
ENCODING 79
SWIDTH 400 0
DWIDTH 12 0
BBX 10 21 1 0
BITMAP
3F00
7F80
FFC0
F3C0
E1C0
E1C0
E1C0
E1C0
E1C0
E1C0
E1C0
E1C0
E1C0
E1C0
E1C0
E1C0
E1C0
F3C0
FFC0
7F80
3E00
ENDCHAR
STARTCHAR 0050
ENCODING 80
SWIDTH 400 0
DWIDTH 12 0
BBX 10 21 1 0
BITMAP
FF00
FF80
FF80
F3C0
F1C0
F1C0
F1C0
F1C0
F1C0
F3C0
FF80
FF80
FE00
F000
F000
F000
F000
F000
F000
F000
F000
ENDCHAR
STARTCHAR 0051
ENCODING 81
SWIDTH 400 0
DWIDTH 12 0
BBX 11 23 1 -2
BITMAP
3F00
7F80
FF80
F3C0
E1C0
E1C0
E1C0
E1C0
E1C0
E1C0
E1C0
E1C0
E1C0
E1C0
E1C0
E1C0
E1C0
F3C0
FFC0
7F80
3FE0
01E0
00E0
ENDCHAR
STARTCHAR 0052
ENCODING 82
SWIDTH 400 0
DWIDTH 12 0
BBX 10 21 1 0
BITMAP
FF00
FF80
FFC0
F3C0
F1C0
F1C0
F1C0
F1C0
F3C0
FF80
FF00
FF80
F3C0
F1C0
F1C0
F1C0
F1C0
F1C0
F1C0
F1C0
F1C0
ENDCHAR
STARTCHAR 0053
ENCODING 83
SWIDTH 366 0
DWIDTH 11 0
BBX 10 21 1 0
BITMAP
3E00
7F00
FF80
E380
E380
E380
E000
F000
7800
7C00
3E00
1F00
0780
0780
0380
E3C0
E380
E380
FF80
7F00
3E00
ENDCHAR
STARTCHAR 0054
ENCODING 84
SWIDTH 366 0
DWIDTH 11 0
BBX 11 21 0 0
BITMAP
FFE0
FFE0
FFE0
0E00
0E00
0E00
0E00
0E00
0E00
0E00
0E00
0E00
0E00
0E00
0E00
0E00
0E00
0E00
0E00
0E00
0E00
ENDCHAR
STARTCHAR 0055
ENCODING 85
SWIDTH 400 0
DWIDTH 12 0
BBX 10 21 1 0
BITMAP
E1C0
E1C0
E1C0
E1C0
E1C0
E1C0
E1C0
E1C0
E1C0
E1C0
E1C0
E1C0
E1C0
E1C0
E1C0
E1C0
E1C0
F3C0
7F80
7F80
3E00
ENDCHAR
STARTCHAR 0056
ENCODING 86
SWIDTH 366 0
DWIDTH 11 0
BBX 11 21 0 0
BITMAP
F0E0
70E0
70E0
70E0
71C0
71C0
79C0
79C0
39C0
39C0
39C0
3980
3B80
3B80
1F80
1F80
1F80
1F00
1F00
1F00
1F00
ENDCHAR
STARTCHAR 0057
ENCODING 87
SWIDTH 566 0
DWIDTH 17 0
BBX 16 21 0 0
BITMAP
F1C7
71C7
73E7
73E7
73E7
73E7
73E7
7367
7366
7366
3B6E
3B6E
3F7E
3F7E
3F7E
3F7E
3E3E
3E3E
3E3C
3E3C
1E3C
ENDCHAR
STARTCHAR 0058
ENCODING 88
SWIDTH 400 0
DWIDTH 12 0
BBX 12 21 0 0
BITMAP
70F0
70E0
78E0
39C0
39C0
3DC0
1F80
1F80
0F80
0F00
0F00
0F00
1F80
1F80
1FC0
39C0
39C0
39E0
70E0
70E0
F0F0
ENDCHAR
STARTCHAR 0059
ENCODING 89
SWIDTH 400 0
DWIDTH 12 0
BBX 12 21 0 0
BITMAP
F0F0
70E0
70E0
79C0
39C0
39C0
3F80
1F80
1F80
1F00
0F00
0F00
0F00
0F00
0F00
0F00
0F00
0F00
0F00
0F00
0F00
ENDCHAR
STARTCHAR 005A
ENCODING 90
SWIDTH 366 0
DWIDTH 11 0
BBX 9 21 1 0
BITMAP
FF80
FF80
FF80
0780
0780
0700
0F00
0E00
1E00
1E00
1C00
3C00
3800
7800
7800
7000
F000
E000
FF80
FF80
FF80
ENDCHAR
STARTCHAR 005B
ENCODING 91
SWIDTH 266 0
DWIDTH 8 0
BBX 5 24 2 -1
BITMAP
F8
F8
F8
E0
E0
E0
E0
E0
E0
E0
E0
E0
E0
E0
E0
E0
E0
E0
E0
E0
E0
F8
F8
F8
ENDCHAR
STARTCHAR 005C
ENCODING 92
SWIDTH 400 0
DWIDTH 12 0
BBX 11 21 0 0
BITMAP
E000
7000
7000
3800
3800
3800
1C00
1C00
0C00
0E00
0E00
0700
0700
0300
0380
0380
01C0
01C0
00C0
00E0
00E0
ENDCHAR
STARTCHAR 005D
ENCODING 93
SWIDTH 266 0
DWIDTH 8 0
BBX 6 24 1 -1
BITMAP
FC
FC
FC
3C
3C
3C
3C
3C
3C
3C
3C
3C
3C
3C
3C
3C
3C
3C
3C
3C
3C
FC
FC
FC
ENDCHAR
STARTCHAR 005E
ENCODING 94
SWIDTH 400 0
DWIDTH 12 0
BBX 10 8 1 13
BITMAP
0C00
1E00
3E00
3F00
7380
7380
E1C0
E1C0
ENDCHAR
STARTCHAR 005F
ENCODING 95
SWIDTH 300 0
DWIDTH 9 0
BBX 9 3 0 -3
BITMAP
FF80
FF80
FF80
ENDCHAR
STARTCHAR 0060
ENCODING 96
SWIDTH 500 0
DWIDTH 15 0
BBX 5 3 4 22
BITMAP
F0
70
38
ENDCHAR
STARTCHAR 0061
ENCODING 97
SWIDTH 400 0
DWIDTH 12 0
BBX 12 21 0 0
BITMAP
0F00
0F00
1F80
1F80
1F80
1F80
1B80
1B80
39C0
39C0
39C0
39C0
39C0
39C0
7FE0
7FE0
7FE0
70E0
70E0
70E0
F0F0
ENDCHAR
STARTCHAR 0062
ENCODING 98
SWIDTH 400 0
DWIDTH 12 0
BBX 10 21 1 0
BITMAP
FF00
FF80
FFC0
F3C0
F1C0
F1C0
F1C0
F1C0
F3C0
FF80
FF80
FFC0
F1C0
F1C0
F1C0
F1C0
F1C0
F1C0
FFC0
FF80
FF00
ENDCHAR
STARTCHAR 0063
ENCODING 99
SWIDTH 366 0
DWIDTH 11 0
BBX 10 21 1 0
BITMAP
3E00
7F80
FF80
F3C0
E1C0
E1C0
E1C0
E000
E000
E000
E000
E000
E000
E1C0
E1C0
E1C0
E1C0
F3C0
FF80
7F80
3E00
ENDCHAR
STARTCHAR 0064
ENCODING 100
SWIDTH 400 0
DWIDTH 12 0
BBX 10 21 1 0
BITMAP
FF00
FF80
FFC0
F3C0
F1C0
F1C0
F1C0
F1C0
F1C0
F1C0
F1C0
F1C0
F1C0
F1C0
F1C0
F1C0
F1C0
F3C0
FFC0
FF80
FF00
ENDCHAR
STARTCHAR 0065
ENCODING 101
SWIDTH 366 0
DWIDTH 11 0
BBX 9 21 1 0
BITMAP
FF80
FF80
FF80
F000
F000
F000
F000
F000
F000
FF00
FF00
FF00
F000
F000
F000
F000
F000
F000
FF80
FF80
FF80
ENDCHAR
STARTCHAR 0066
ENCODING 102
SWIDTH 333 0
DWIDTH 10 0
BBX 9 21 1 0
BITMAP
FF80
FF80
FF80
F000
F000
F000
F000
F000
F000
FF00
FF00
FF00
F000
F000
F000
F000
F000
F000
F000
F000
F000
ENDCHAR
STARTCHAR 0067
ENCODING 103
SWIDTH 400 0
DWIDTH 12 0
BBX 10 21 1 0
BITMAP
3E00
7F80
FF80
F3C0
E1C0
E1C0
E1C0
E000
E000
E7C0
E7C0
E7C0
E1C0
E1C0
E1C0
E1C0
E1C0
F3C0
FF80
7F80
3E00
ENDCHAR
STARTCHAR 0068
ENCODING 104
SWIDTH 433 0
DWIDTH 13 0
BBX 10 21 1 0
BITMAP
F1C0
F1C0
F1C0
F1C0
F1C0
F1C0
F1C0
F1C0
F1C0
FFC0
FFC0
FFC0
F1C0
F1C0
F1C0
F1C0
F1C0
F1C0
F1C0
F1C0
F1C0
ENDCHAR
STARTCHAR 0069
ENCODING 105
SWIDTH 200 0
DWIDTH 6 0
BBX 4 21 1 0
BITMAP
F0
F0
F0
F0
F0
F0
F0
F0
F0
F0
F0
F0
F0
F0
F0
F0
F0
F0
F0
F0
F0
ENDCHAR
STARTCHAR 006A
ENCODING 106
SWIDTH 266 0
DWIDTH 8 0
BBX 7 21 0 0
BITMAP
0E
0E
0E
0E
0E
0E
0E
0E
0E
0E
0E
0E
0E
0E
0E
0E
1E
1E
FC
FC
F8
ENDCHAR
STARTCHAR 006B
ENCODING 107
SWIDTH 400 0
DWIDTH 12 0
BBX 11 21 1 0
BITMAP
F1E0
F1C0
F1C0
F380
F380
F700
F700
FE00
FE00
FF00
FF00
FF00
F780
F780
F380
F380
F3C0
F1C0
F1C0
F1E0
F1E0
ENDCHAR
STARTCHAR 006C
ENCODING 108
SWIDTH 333 0
DWIDTH 10 0
BBX 9 21 1 0
BITMAP
F000
F000
F000
F000
F000
F000
F000
F000
F000
F000
F000
F000
F000
F000
F000
F000
F000
F000
FF80
FF80
FF80
ENDCHAR
STARTCHAR 006D
ENCODING 109
SWIDTH 533 0
DWIDTH 16 0
BBX 14 21 1 0
BITMAP
F87C
F87C
F87C
F87C
FC7C
FCFC
FCFC
ECDC
ECDC
ECDC
ECDC
EEDC
EFDC
EF9C
E79C
E79C
E79C
E79C
E79C
E79C
E71C
ENDCHAR
STARTCHAR 006E
ENCODING 110
SWIDTH 433 0
DWIDTH 13 0
BBX 11 21 1 0
BITMAP
F8E0
F8E0
F8E0
F8E0
FCE0
FCE0
FCE0
ECE0
EEE0
EEE0
EEE0
E6E0
E7E0
E7E0
E7E0
E3E0
E3E0
E3E0
E1E0
E1E0
E1E0
ENDCHAR
STARTCHAR 006F
ENCODING 111
SWIDTH 400 0
DWIDTH 12 0
BBX 10 21 1 0
BITMAP
3F00
7F80
FFC0
F3C0
E1C0
E1C0
E1C0
E1C0
E1C0
E1C0
E1C0
E1C0
E1C0
E1C0
E1C0
E1C0
E1C0
F3C0
FFC0
7F80
3E00
ENDCHAR
STARTCHAR 0070
ENCODING 112
SWIDTH 400 0
DWIDTH 12 0
BBX 10 21 1 0
BITMAP
FF00
FF80
FF80
F3C0
F1C0
F1C0
F1C0
F1C0
F1C0
F3C0
FF80
FF80
FE00
F000
F000
F000
F000
F000
F000
F000
F000
ENDCHAR
STARTCHAR 0071
ENCODING 113
SWIDTH 400 0
DWIDTH 12 0
BBX 11 23 1 -2
BITMAP
3F00
7F80
FF80
F3C0
E1C0
E1C0
E1C0
E1C0
E1C0
E1C0
E1C0
E1C0
E1C0
E1C0
E1C0
E1C0
E1C0
F3C0
FFC0
7F80
3FE0
01E0
00E0
ENDCHAR
STARTCHAR 0072
ENCODING 114
SWIDTH 400 0
DWIDTH 12 0
BBX 10 21 1 0
BITMAP
FF00
FF80
FFC0
F3C0
F1C0
F1C0
F1C0
F1C0
F3C0
FF80
FF00
FF80
F3C0
F1C0
F1C0
F1C0
F1C0
F1C0
F1C0
F1C0
F1C0
ENDCHAR
STARTCHAR 0073
ENCODING 115
SWIDTH 366 0
DWIDTH 11 0
BBX 10 21 1 0
BITMAP
3E00
7F00
FF80
E380
E380
E380
E000
F000
7800
7C00
3E00
1F00
0780
0780
0380
E3C0
E380
E380
FF80
7F00
3E00
ENDCHAR
STARTCHAR 0074
ENCODING 116
SWIDTH 366 0
DWIDTH 11 0
BBX 11 21 0 0
BITMAP
FFE0
FFE0
FFE0
0E00
0E00
0E00
0E00
0E00
0E00
0E00
0E00
0E00
0E00
0E00
0E00
0E00
0E00
0E00
0E00
0E00
0E00
ENDCHAR
STARTCHAR 0075
ENCODING 117
SWIDTH 400 0
DWIDTH 12 0
BBX 10 21 1 0
BITMAP
E1C0
E1C0
E1C0
E1C0
E1C0
E1C0
E1C0
E1C0
E1C0
E1C0
E1C0
E1C0
E1C0
E1C0
E1C0
E1C0
E1C0
F3C0
7F80
7F80
3E00
ENDCHAR
STARTCHAR 0076
ENCODING 118
SWIDTH 366 0
DWIDTH 11 0
BBX 11 21 0 0
BITMAP
F0E0
70E0
70E0
70E0
71C0
71C0
79C0
79C0
39C0
39C0
39C0
3980
3B80
3B80
1F80
1F80
1F80
1F00
1F00
1F00
1F00
ENDCHAR
STARTCHAR 0077
ENCODING 119
SWIDTH 566 0
DWIDTH 17 0
BBX 16 21 0 0
BITMAP
F1C7
71C7
73E7
73E7
73E7
73E7
73E7
7367
7366
7366
3B6E
3B6E
3F7E
3F7E
3F7E
3F7E
3E3E
3E3E
3E3C
3E3C
1E3C
ENDCHAR
STARTCHAR 0078
ENCODING 120
SWIDTH 400 0
DWIDTH 12 0
BBX 12 21 0 0
BITMAP
70F0
70E0
78E0
39C0
39C0
3DC0
1F80
1F80
0F80
0F00
0F00
0F00
1F80
1F80
1FC0
39C0
39C0
39E0
70E0
70E0
F0F0
ENDCHAR
STARTCHAR 0079
ENCODING 121
SWIDTH 400 0
DWIDTH 12 0
BBX 12 21 0 0
BITMAP
F0F0
70E0
70E0
79C0
39C0
39C0
3F80
1F80
1F80
1F00
0F00
0F00
0F00
0F00
0F00
0F00
0F00
0F00
0F00
0F00
0F00
ENDCHAR
STARTCHAR 007A
ENCODING 122
SWIDTH 366 0
DWIDTH 11 0
BBX 9 21 1 0
BITMAP
FF80
FF80
FF80
0780
0780
0700
0F00
0E00
1E00
1E00
1C00
3C00
3800
7800
7800
7000
F000
E000
FF80
FF80
FF80
ENDCHAR
STARTCHAR 007B
ENCODING 123
SWIDTH 266 0
DWIDTH 8 0
BBX 7 24 1 -1
BITMAP
1E
3E
3E
38
38
30
30
30
30
70
70
F0
E0
F0
70
30
30
30
30
30
38
3E
3E
1E
ENDCHAR
STARTCHAR 007C
ENCODING 124
SWIDTH 500 0
DWIDTH 15 0
BBX 3 30 6 -6
BITMAP
E0
E0
E0
E0
E0
E0
E0
E0
E0
E0
E0
E0
E0
E0
E0
E0
E0
E0
E0
E0
E0
E0
E0
E0
E0
E0
E0
E0
E0
E0
ENDCHAR
STARTCHAR 007D
ENCODING 125
SWIDTH 266 0
DWIDTH 8 0
BBX 7 24 1 -1
BITMAP
E0
F0
F8
78
38
38
38
38
38
38
38
3E
0E
3E
38
38
38
38
38
38
78
F8
F0
E0
ENDCHAR
STARTCHAR 007E
ENCODING 126
SWIDTH 400 0
DWIDTH 12 0
BBX 12 4 0 8
BITMAP
3C70
7FE0
FFE0
63C0
ENDCHAR
STARTCHAR 00A0
ENCODING 160
SWIDTH 166 0
DWIDTH 5 0
BBX 0 0 0 0
BITMAP
ENDCHAR
STARTCHAR 00A1
ENCODING 161
SWIDTH 200 0
DWIDTH 6 0
BBX 4 21 1 0
BITMAP
70
70
70
00
00
00
60
60
70
70
70
70
F0
F0
F0
F0
F0
F0
F0
F0
F0
ENDCHAR
STARTCHAR 00A2
ENCODING 162
SWIDTH 400 0
DWIDTH 12 0
BBX 10 22 1 -1
BITMAP
0C00
0C00
1F00
7F80
7F80
F3C0
F1C0
F1C0
F000
F000
F000
F000
F000
F1C0
F1C0
F1C0
F3C0
7F80
7F80
1E00
0C00
0C00
ENDCHAR
STARTCHAR 00A3
ENCODING 163
SWIDTH 400 0
DWIDTH 12 0
BBX 10 21 1 0
BITMAP
1F00
7F80
7FC0
F1C0
F1C0
F1C0
7000
7000
7800
3800
FF80
FF80
FF80
1C00
1C00
1C00
3800
7000
FFC0
FFC0
FFC0
ENDCHAR
STARTCHAR 00A4
ENCODING 164
SWIDTH 400 0
DWIDTH 12 0
BBX 10 10 1 6
BITMAP
4080
FFC0
7F80
7380
6180
6180
7380
7F80
FFC0
4080
ENDCHAR
STARTCHAR 00A5
ENCODING 165
SWIDTH 400 0
DWIDTH 12 0
BBX 11 21 1 0
BITMAP
E1E0
E1C0
F1C0
7380
7380
7380
3B00
3F00
3F00
1E00
1E00
7F80
7F80
1E00
1E00
1E00
7F80
7F80
1E00
1E00
1E00
ENDCHAR
STARTCHAR 00A6
ENCODING 166
SWIDTH 500 0
DWIDTH 15 0
BBX 3 30 6 -6
BITMAP
E0
E0
E0
E0
E0
E0
E0
E0
E0
E0
E0
E0
00
00
00
00
00
00
E0
E0
E0
E0
E0
E0
E0
E0
E0
E0
E0
E0
ENDCHAR
STARTCHAR 00A7
ENCODING 167
SWIDTH 400 0
DWIDTH 12 0
BBX 10 25 1 -4
BITMAP
3F00
7F80
FFC0
F3C0
E1C0
E000
F000
7E00
7F00
7F80
F7C0
E1C0
E1C0
E1C0
F3C0
FF80
7F00
1F80
03C0
E1C0
E1C0
F3C0
FFC0
7F80
3E00
ENDCHAR
STARTCHAR 00A8
ENCODING 168
SWIDTH 500 0
DWIDTH 15 0
BBX 7 3 4 22
BITMAP
EE
EE
EE
ENDCHAR
STARTCHAR 00A9
ENCODING 169
SWIDTH 733 0
DWIDTH 22 0
BBX 21 21 1 0
BITMAP
01FC00
0FFF00
1E0780
3801C0
70F0E0
61F860
E19870
C19830
C19830
C18030
C18038
C18030
C19830
C19830
E19870
61F860
70F0E0
3801C0
1E0780
07FF00
01F800
ENDCHAR
STARTCHAR 00AA
ENCODING 170
SWIDTH 266 0
DWIDTH 8 0
BBX 6 15 1 7
BITMAP
78
7C
CC
0C
3C
FC
CC
CC
CC
FC
7C
00
00
FC
FC
ENDCHAR
STARTCHAR 00AB
ENCODING 171
SWIDTH 333 0
DWIDTH 10 0
BBX 10 7 0 7
BITMAP
39C0
3380
7700
E700
7300
3380
39C0
ENDCHAR
STARTCHAR 00AC
ENCODING 172
SWIDTH 400 0
DWIDTH 12 0
BBX 10 6 1 5
BITMAP
FFC0
FFC0
00C0
00C0
00C0
00C0
ENDCHAR
STARTCHAR 00AD
ENCODING 173
SWIDTH 266 0
DWIDTH 8 0
BBX 6 3 1 9
BITMAP
FC
FC
FC
ENDCHAR
STARTCHAR 00AE
ENCODING 174
SWIDTH 733 0
DWIDTH 22 0
BBX 21 21 1 0
BITMAP
01FC00
0FFF00
1E0780
3801C0
71F0E0
61F860
E19C70
C19C30
C19C30
C19830
C1F838
C1F830
C19830
C19C30
E19C70
619C60
719CE0
3801C0
1E0780
07FF00
01F800
ENDCHAR
STARTCHAR 00AF
ENCODING 175
SWIDTH 500 0
DWIDTH 15 0
BBX 7 2 4 22
BITMAP
FE
FE
ENDCHAR
STARTCHAR 00B0
ENCODING 176
SWIDTH 400 0
DWIDTH 12 0
BBX 8 7 2 14
BITMAP
3C
7E
E7
C3
E7
7E
3C
ENDCHAR
STARTCHAR 00B1
ENCODING 177
SWIDTH 400 0
DWIDTH 12 0
BBX 10 11 1 5
BITMAP
0C00
0C00
0C00
FFC0
FFC0
0C00
0C00
0C00
0C00
FFC0
FFC0
ENDCHAR
STARTCHAR 00B2
ENCODING 178
SWIDTH 266 0
DWIDTH 8 0
BBX 6 13 1 11
BITMAP
78
FC
CC
CC
0C
0C
18
30
60
E0
C0
FC
FC
ENDCHAR
STARTCHAR 00B3
ENCODING 179
SWIDTH 266 0
DWIDTH 8 0
BBX 6 13 1 11
BITMAP
78
FC
CC
CC
0C
38
3C
0C
0C
CC
CC
FC
78
ENDCHAR
STARTCHAR 00B4
ENCODING 180
SWIDTH 500 0
DWIDTH 15 0
BBX 5 3 6 22
BITMAP
78
70
E0
ENDCHAR
STARTCHAR 00B5
ENCODING 181
SWIDTH 400 0
DWIDTH 12 0
BBX 10 20 1 -5
BITMAP
F1C0
F1C0
F1C0
F1C0
F1C0
F1C0
F1C0
F1C0
F1C0
F1C0
F1C0
F3C0
FFC0
FFC0
FDC0
F000
F000
F000
F000
F000
ENDCHAR
STARTCHAR 00B6
ENCODING 182
SWIDTH 433 0
DWIDTH 13 0
BBX 11 24 1 -3
BITMAP
1FE0
7FE0
FFE0
FEE0
FEE0
FEE0
FEE0
FEE0
FEE0
FEE0
7EE0
3EE0
0EE0
0EE0
0EE0
0EE0
0EE0
0EE0
0EE0
0EE0
0EE0
0EE0
0EE0
0EE0
ENDCHAR
STARTCHAR 00B7
ENCODING 183
SWIDTH 200 0
DWIDTH 6 0
BBX 3 3 1 9
BITMAP
E0
E0
E0
ENDCHAR
STARTCHAR 00B8
ENCODING 184
SWIDTH 500 0
DWIDTH 15 0
BBX 5 5 5 -4
BITMAP
20
20
18
D8
F8
ENDCHAR
STARTCHAR 00B9
ENCODING 185
SWIDTH 266 0
DWIDTH 8 0
BBX 4 13 2 11
BITMAP
30
F0
F0
30
30
30
30
30
30
30
30
30
30
ENDCHAR
STARTCHAR 00BA
ENCODING 186
SWIDTH 266 0
DWIDTH 8 0
BBX 6 15 1 7
BITMAP
78
FC
CC
CC
CC
CC
CC
CC
CC
FC
78
00
00
FC
FC
ENDCHAR
STARTCHAR 00BB
ENCODING 187
SWIDTH 333 0
DWIDTH 10 0
BBX 9 7 1 7
BITMAP
CE00
E600
7700
7380
7700
E600
CE00
ENDCHAR
STARTCHAR 00BC
ENCODING 188
SWIDTH 666 0
DWIDTH 20 0
BBX 17 21 2 0
BITMAP
301800
303000
F03000
307000
306000
306000
30C000
30C000
31C700
318700
318700
330F00
330F00
031B00
061B00
063300
0E3300
0C3F80
0C3F80
180300
180300
ENDCHAR
STARTCHAR 00BD
ENCODING 189
SWIDTH 666 0
DWIDTH 20 0
BBX 17 21 2 0
BITMAP
301800
303000
F03000
307000
306000
306000
30C000
30C000
31DE00
319F00
31B300
333380
330300
030300
060600
060C00
0E1800
0C1800
0C3000
183F00
183F00
ENDCHAR
STARTCHAR 00BE
ENCODING 190
SWIDTH 666 0
DWIDTH 20 0
BBX 18 21 1 0
BITMAP
780C00
FC1800
CC1800
CC3800
0C3000
0C3000
386000
3C6000
0CE380
0CC380
CCC380
CD8780
FD8780
798D80
030D80
031980
071980
061FC0
061FC0
0C0180
0C0180
ENDCHAR
STARTCHAR 00BF
ENCODING 191
SWIDTH 366 0
DWIDTH 11 0
BBX 9 21 1 0
BITMAP
1E00
1E00
1E00
0000
0000
1C00
1C00
1C00
1C00
3C00
3800
7000
F000
E000
E380
E380
E380
E380
FF80
7F00
3E00
ENDCHAR
STARTCHAR 00C0
ENCODING 192
SWIDTH 400 0
DWIDTH 12 0
BBX 12 25 0 0
BITMAP
3C00
0E00
0700
0000
0F00
0F00
1F80
1F80
1F80
1F80
1B80
1B80
39C0
39C0
39C0
39C0
39C0
39C0
7FE0
7FE0
7FE0
70E0
70E0
70E0
F0F0
ENDCHAR
STARTCHAR 00C1
ENCODING 193
SWIDTH 400 0
DWIDTH 12 0
BBX 12 25 0 0
BITMAP
03C0
0700
0E00
0000
0F00
0F00
1F80
1F80
1F80
1F80
1B80
1B80
39C0
39C0
39C0
39C0
39C0
39C0
7FE0
7FE0
7FE0
70E0
70E0
70E0
F0F0
ENDCHAR
STARTCHAR 00C2
ENCODING 194
SWIDTH 400 0
DWIDTH 12 0
BBX 12 26 0 0
BITMAP
0F00
0F00
1F80
39C0
0000
0F00
0F00
1F80
1F80
1F80
1F80
1B80
1B80
39C0
39C0
39C0
39C0
39C0
39C0
7FE0
7FE0
7FE0
70E0
70E0
70E0
F0F0
ENDCHAR
STARTCHAR 00C3
ENCODING 195
SWIDTH 400 0
DWIDTH 12 0
BBX 12 25 0 0
BITMAP
1EC0
3FC0
3380
0000
0F00
0F00
1F80
1F80
1F80
1F80
1B80
1B80
39C0
39C0
39C0
39C0
39C0
39C0
7FE0
7FE0
7FE0
70E0
70E0
70E0
F0F0
ENDCHAR
STARTCHAR 00C4
ENCODING 196
SWIDTH 400 0
DWIDTH 12 0
BBX 12 25 0 0
BITMAP
39C0
39C0
39C0
0000
0F00
0F00
1F80
1F80
1F80
1F80
1B80
1B80
39C0
39C0
39C0
39C0
39C0
39C0
7FE0
7FE0
7FE0
70E0
70E0
70E0
F0F0
ENDCHAR
STARTCHAR 00C5
ENCODING 197
SWIDTH 400 0
DWIDTH 12 0
BBX 12 27 0 0
BITMAP
0F00
0F00
1980
0F00
0F00
0000
0F00
0F00
1F80
1F80
1F80
1F80
1B80
1B80
39C0
39C0
39C0
39C0
39C0
39C0
7FE0
7FE0
7FE0
70E0
70E0
70E0
F0F0
ENDCHAR
STARTCHAR 00C6
ENCODING 198
SWIDTH 566 0
DWIDTH 17 0
BBX 17 21 0 0
BITMAP
03FF80
07FF80
07FF80
07E000
07E000
0EE000
0EE000
0EE000
0EE000
1CFF00
1CFF00
1CFF00
1CE000
38E000
3FE000
3FE000
7FE000
70E000
70FF80
70FF80
F0FF80
ENDCHAR
STARTCHAR 00C7
ENCODING 199
SWIDTH 366 0
DWIDTH 11 0
BBX 10 25 1 -4
BITMAP
3E00
7F80
7F80
F3C0
E1C0
E1C0
E1C0
E000
E000
E000
E000
E000
E000
E000
E1C0
E1C0
E1C0
E1C0
F380
7F80
3F00
0C00
0F00
3700
3E00
ENDCHAR
STARTCHAR 00C8
ENCODING 200
SWIDTH 366 0
DWIDTH 11 0
BBX 9 25 1 0
BITMAP
7800
3800
1E00
0000
FF80
FF80
FF80
F000
F000
F000
F000
F000
F000
FF00
FF00
FF00
F000
F000
F000
F000
F000
F000
FF80
FF80
FF80
ENDCHAR
STARTCHAR 00C9
ENCODING 201
SWIDTH 366 0
DWIDTH 11 0
BBX 9 25 1 0
BITMAP
0780
0E00
1C00
0000
FF80
FF80
FF80
F000
F000
F000
F000
F000
F000
FF00
FF00
FF00
F000
F000
F000
F000
F000
F000
FF80
FF80
FF80
ENDCHAR
STARTCHAR 00CA
ENCODING 202
SWIDTH 366 0
DWIDTH 11 0
BBX 9 26 1 0
BITMAP
1C00
3E00
3F00
7380
0000
FF80
FF80
FF80
F000
F000
F000
F000
F000
F000
FF00
FF00
FF00
F000
F000
F000
F000
F000
F000
FF80
FF80
FF80
ENDCHAR
STARTCHAR 00CB
ENCODING 203
SWIDTH 366 0
DWIDTH 11 0
BBX 9 25 1 0
BITMAP
7380
7380
7380
0000
FF80
FF80
FF80
F000
F000
F000
F000
F000
F000
FF00
FF00
FF00
F000
F000
F000
F000
F000
F000
FF80
FF80
FF80
ENDCHAR
STARTCHAR 00CC
ENCODING 204
SWIDTH 200 0
DWIDTH 6 0
BBX 6 25 -1 0
BITMAP
F0
38
1C
00
3C
3C
3C
3C
3C
3C
3C
3C
3C
3C
3C
3C
3C
3C
3C
3C
3C
3C
3C
3C
3C
ENDCHAR
STARTCHAR 00CD
ENCODING 205
SWIDTH 200 0
DWIDTH 6 0
BBX 6 25 1 0
BITMAP
3C
70
E0
00
F0
F0
F0
F0
F0
F0
F0
F0
F0
F0
F0
F0
F0
F0
F0
F0
F0
F0
F0
F0
F0
ENDCHAR
STARTCHAR 00CE
ENCODING 206
SWIDTH 200 0
DWIDTH 6 0
BBX 8 26 -1 0
BITMAP
38
3C
7E
E7
00
3C
3C
3C
3C
3C
3C
3C
3C
3C
3C
3C
3C
3C
3C
3C
3C
3C
3C
3C
3C
3C
ENDCHAR
STARTCHAR 00CF
ENCODING 207
SWIDTH 200 0
DWIDTH 6 0
BBX 8 25 -1 0
BITMAP
E7
E7
E7
00
3C
3C
3C
3C
3C
3C
3C
3C
3C
3C
3C
3C
3C
3C
3C
3C
3C
3C
3C
3C
3C
ENDCHAR
STARTCHAR 00D0
ENCODING 208
SWIDTH 433 0
DWIDTH 13 0
BBX 12 21 0 0
BITMAP
3F80
3FE0
3FE0
38F0
38F0
38F0
38F0
38F0
38F0
FEF0
FEF0
FEF0
38F0
38F0
38F0
38F0
38F0
38F0
3FE0
3FE0
3F80
ENDCHAR
STARTCHAR 00D1
ENCODING 209
SWIDTH 433 0
DWIDTH 13 0
BBX 11 25 1 0
BITMAP
3DC0
3F80
6700
0000
F8E0
F8E0
F8E0
F8E0
FCE0
FCE0
FCE0
ECE0
EEE0
EEE0
EEE0
E6E0
E7E0
E7E0
E7E0
E3E0
E3E0
E3E0
E1E0
E1E0
E1E0
ENDCHAR
STARTCHAR 00D2
ENCODING 210
SWIDTH 400 0
DWIDTH 12 0
BBX 10 25 1 0
BITMAP
7800
1C00
0E00
0000
3F00
7F80
FFC0
F3C0
E1C0
E1C0
E1C0
E1C0
E1C0
E1C0
E1C0
E1C0
E1C0
E1C0
E1C0
E1C0
E1C0
F3C0
FFC0
7F80
3E00
ENDCHAR
STARTCHAR 00D3
ENCODING 211
SWIDTH 400 0
DWIDTH 12 0
BBX 10 25 1 0
BITMAP
0780
0E00
1C00
0000
3F00
7F80
FFC0
F3C0
E1C0
E1C0
E1C0
E1C0
E1C0
E1C0
E1C0
E1C0
E1C0
E1C0
E1C0
E1C0
E1C0
F3C0
FFC0
7F80
3E00
ENDCHAR
STARTCHAR 00D4
ENCODING 212
SWIDTH 400 0
DWIDTH 12 0
BBX 10 26 1 0
BITMAP
1E00
1E00
3F00
7380
0000
3F00
7F80
FFC0
F3C0
E1C0
E1C0
E1C0
E1C0
E1C0
E1C0
E1C0
E1C0
E1C0
E1C0
E1C0
E1C0
E1C0
F3C0
FFC0
7F80
3E00
ENDCHAR
STARTCHAR 00D5
ENCODING 213
SWIDTH 400 0
DWIDTH 12 0
BBX 10 25 1 0
BITMAP
3980
7F80
6700
0000
3F00
7F80
FFC0
F3C0
E1C0
E1C0
E1C0
E1C0
E1C0
E1C0
E1C0
E1C0
E1C0
E1C0
E1C0
E1C0
E1C0
F3C0
FFC0
7F80
3E00
ENDCHAR
STARTCHAR 00D6
ENCODING 214
SWIDTH 400 0
DWIDTH 12 0
BBX 10 25 1 0
BITMAP
7380
7380
7380
0000
3F00
7F80
FFC0
F3C0
E1C0
E1C0
E1C0
E1C0
E1C0
E1C0
E1C0
E1C0
E1C0
E1C0
E1C0
E1C0
E1C0
F3C0
FFC0
7F80
3E00
ENDCHAR
STARTCHAR 00D7
ENCODING 215
SWIDTH 400 0
DWIDTH 12 0
BBX 10 9 1 6
BITMAP
6180
F3C0
7F80
3F00
1E00
3F00
7F80
F3C0
6180
ENDCHAR
STARTCHAR 00D8
ENCODING 216
SWIDTH 400 0
DWIDTH 12 0
BBX 10 22 1 -1
BITMAP
3EC0
7FC0
FF80
F3C0
E3C0
E3C0
E3C0
E7C0
E7C0
EFC0
EDC0
EDC0
F9C0
F9C0
F1C0
F1C0
F1C0
F3C0
FFC0
FF80
FE00
4000
ENDCHAR
STARTCHAR 00D9
ENCODING 217
SWIDTH 400 0
DWIDTH 12 0
BBX 10 25 1 0
BITMAP
7800
1C00
0E00
0000
E1C0
E1C0
E1C0
E1C0
E1C0
E1C0
E1C0
E1C0
E1C0
E1C0
E1C0
E1C0
E1C0
E1C0
E1C0
E1C0
E1C0
F3C0
7F80
7F80
3E00
ENDCHAR
STARTCHAR 00DA
ENCODING 218
SWIDTH 400 0
DWIDTH 12 0
BBX 10 25 1 0
BITMAP
0780
0E00
1C00
0000
E1C0
E1C0
E1C0
E1C0
E1C0
E1C0
E1C0
E1C0
E1C0
E1C0
E1C0
E1C0
E1C0
E1C0
E1C0
E1C0
E1C0
F3C0
7F80
7F80
3E00
ENDCHAR
STARTCHAR 00DB
ENCODING 219
SWIDTH 400 0
DWIDTH 12 0
BBX 10 26 1 0
BITMAP
1E00
1E00
3F00
7380
0000
E1C0
E1C0
E1C0
E1C0
E1C0
E1C0
E1C0
E1C0
E1C0
E1C0
E1C0
E1C0
E1C0
E1C0
E1C0
E1C0
E1C0
F3C0
7F80
7F80
3E00
ENDCHAR
STARTCHAR 00DC
ENCODING 220
SWIDTH 400 0
DWIDTH 12 0
BBX 10 25 1 0
BITMAP
7380
7380
7380
0000
E1C0
E1C0
E1C0
E1C0
E1C0
E1C0
E1C0
E1C0
E1C0
E1C0
E1C0
E1C0
E1C0
E1C0
E1C0
E1C0
E1C0
F3C0
7F80
7F80
3E00
ENDCHAR
STARTCHAR 00DD
ENCODING 221
SWIDTH 400 0
DWIDTH 12 0
BBX 12 25 0 0
BITMAP
03C0
0700
0E00
0000
F0F0
70E0
70E0
79C0
39C0
39C0
3F80
1F80
1F80
1F00
0F00
0F00
0F00
0F00
0F00
0F00
0F00
0F00
0F00
0F00
0F00
ENDCHAR
STARTCHAR 00DE
ENCODING 222
SWIDTH 400 0
DWIDTH 12 0
BBX 10 21 1 0
BITMAP
F000
F000
F000
FE00
FF80
FF80
F3C0
F1C0
F1C0
F1C0
F1C0
F1C0
F3C0
FF80
FF80
FE00
F000
F000
F000
F000
F000
ENDCHAR
STARTCHAR 00DF
ENCODING 223
SWIDTH 400 0
DWIDTH 12 0
BBX 11 21 1 0
BITMAP
FFC0
FFC0
FFC0
F1C0
F3C0
F380
F380
F700
F700
F780
F7C0
F3C0
F1E0
F1E0
F1E0
F1E0
F1E0
F1C0
F7C0
F780
F700
ENDCHAR
STARTCHAR 00E0
ENCODING 224
SWIDTH 400 0
DWIDTH 12 0
BBX 12 25 0 0
BITMAP
3C00
0E00
0700
0000
0F00
0F00
1F80
1F80
1F80
1F80
1B80
1B80
39C0
39C0
39C0
39C0
39C0
39C0
7FE0
7FE0
7FE0
70E0
70E0
70E0
F0F0
ENDCHAR
STARTCHAR 00E1
ENCODING 225
SWIDTH 400 0
DWIDTH 12 0
BBX 12 25 0 0
BITMAP
03C0
0700
0E00
0000
0F00
0F00
1F80
1F80
1F80
1F80
1B80
1B80
39C0
39C0
39C0
39C0
39C0
39C0
7FE0
7FE0
7FE0
70E0
70E0
70E0
F0F0
ENDCHAR
STARTCHAR 00E2
ENCODING 226
SWIDTH 400 0
DWIDTH 12 0
BBX 12 26 0 0
BITMAP
0F00
0F00
1F80
39C0
0000
0F00
0F00
1F80
1F80
1F80
1F80
1B80
1B80
39C0
39C0
39C0
39C0
39C0
39C0
7FE0
7FE0
7FE0
70E0
70E0
70E0
F0F0
ENDCHAR
STARTCHAR 00E3
ENCODING 227
SWIDTH 400 0
DWIDTH 12 0
BBX 12 25 0 0
BITMAP
1EC0
3FC0
3380
0000
0F00
0F00
1F80
1F80
1F80
1F80
1B80
1B80
39C0
39C0
39C0
39C0
39C0
39C0
7FE0
7FE0
7FE0
70E0
70E0
70E0
F0F0
ENDCHAR
STARTCHAR 00E4
ENCODING 228
SWIDTH 400 0
DWIDTH 12 0
BBX 12 25 0 0
BITMAP
39C0
39C0
39C0
0000
0F00
0F00
1F80
1F80
1F80
1F80
1B80
1B80
39C0
39C0
39C0
39C0
39C0
39C0
7FE0
7FE0
7FE0
70E0
70E0
70E0
F0F0
ENDCHAR
STARTCHAR 00E5
ENCODING 229
SWIDTH 400 0
DWIDTH 12 0
BBX 12 27 0 0
BITMAP
0F00
0F00
1980
0F00
0F00
0000
0F00
0F00
1F80
1F80
1F80
1F80
1B80
1B80
39C0
39C0
39C0
39C0
39C0
39C0
7FE0
7FE0
7FE0
70E0
70E0
70E0
F0F0
ENDCHAR
STARTCHAR 00E6
ENCODING 230
SWIDTH 566 0
DWIDTH 17 0
BBX 17 21 0 0
BITMAP
03FF80
07FF80
07FF80
07E000
07E000
0EE000
0EE000
0EE000
0EE000
1CFF00
1CFF00
1CFF00
1CE000
38E000
3FE000
3FE000
7FE000
70E000
70FF80
70FF80
F0FF80
ENDCHAR
STARTCHAR 00E7
ENCODING 231
SWIDTH 366 0
DWIDTH 11 0
BBX 10 25 1 -4
BITMAP
3E00
7F80
7F80
F3C0
E1C0
E1C0
E1C0
E000
E000
E000
E000
E000
E000
E000
E1C0
E1C0
E1C0
E1C0
F380
7F80
3F00
0C00
0F00
3700
3E00
ENDCHAR
STARTCHAR 00E8
ENCODING 232
SWIDTH 366 0
DWIDTH 11 0
BBX 9 25 1 0
BITMAP
7800
3800
1E00
0000
FF80
FF80
FF80
F000
F000
F000
F000
F000
F000
FF00
FF00
FF00
F000
F000
F000
F000
F000
F000
FF80
FF80
FF80
ENDCHAR
STARTCHAR 00E9
ENCODING 233
SWIDTH 366 0
DWIDTH 11 0
BBX 9 25 1 0
BITMAP
0780
0E00
1C00
0000
FF80
FF80
FF80
F000
F000
F000
F000
F000
F000
FF00
FF00
FF00
F000
F000
F000
F000
F000
F000
FF80
FF80
FF80
ENDCHAR
STARTCHAR 00EA
ENCODING 234
SWIDTH 366 0
DWIDTH 11 0
BBX 9 26 1 0
BITMAP
1C00
3E00
3F00
7380
0000
FF80
FF80
FF80
F000
F000
F000
F000
F000
F000
FF00
FF00
FF00
F000
F000
F000
F000
F000
F000
FF80
FF80
FF80
ENDCHAR
STARTCHAR 00EB
ENCODING 235
SWIDTH 366 0
DWIDTH 11 0
BBX 9 25 1 0
BITMAP
7380
7380
7380
0000
FF80
FF80
FF80
F000
F000
F000
F000
F000
F000
FF00
FF00
FF00
F000
F000
F000
F000
F000
F000
FF80
FF80
FF80
ENDCHAR
STARTCHAR 00EC
ENCODING 236
SWIDTH 200 0
DWIDTH 6 0
BBX 6 25 -1 0
BITMAP
F0
38
1C
00
3C
3C
3C
3C
3C
3C
3C
3C
3C
3C
3C
3C
3C
3C
3C
3C
3C
3C
3C
3C
3C
ENDCHAR
STARTCHAR 00ED
ENCODING 237
SWIDTH 200 0
DWIDTH 6 0
BBX 6 25 1 0
BITMAP
3C
70
E0
00
F0
F0
F0
F0
F0
F0
F0
F0
F0
F0
F0
F0
F0
F0
F0
F0
F0
F0
F0
F0
F0
ENDCHAR
STARTCHAR 00EE
ENCODING 238
SWIDTH 200 0
DWIDTH 6 0
BBX 8 26 -1 0
BITMAP
38
3C
7E
E7
00
3C
3C
3C
3C
3C
3C
3C
3C
3C
3C
3C
3C
3C
3C
3C
3C
3C
3C
3C
3C
3C
ENDCHAR
STARTCHAR 00EF
ENCODING 239
SWIDTH 200 0
DWIDTH 6 0
BBX 8 25 -1 0
BITMAP
E7
E7
E7
00
3C
3C
3C
3C
3C
3C
3C
3C
3C
3C
3C
3C
3C
3C
3C
3C
3C
3C
3C
3C
3C
ENDCHAR
STARTCHAR 00F0
ENCODING 240
SWIDTH 433 0
DWIDTH 13 0
BBX 12 21 0 0
BITMAP
3F80
3FE0
3FE0
38F0
38F0
38F0
38F0
38F0
38F0
FEF0
FEF0
FEF0
38F0
38F0
38F0
38F0
38F0
38F0
3FE0
3FE0
3F80
ENDCHAR
STARTCHAR 00F1
ENCODING 241
SWIDTH 433 0
DWIDTH 13 0
BBX 11 25 1 0
BITMAP
3DC0
3F80
6700
0000
F8E0
F8E0
F8E0
F8E0
FCE0
FCE0
FCE0
ECE0
EEE0
EEE0
EEE0
E6E0
E7E0
E7E0
E7E0
E3E0
E3E0
E3E0
E1E0
E1E0
E1E0
ENDCHAR
STARTCHAR 00F2
ENCODING 242
SWIDTH 400 0
DWIDTH 12 0
BBX 10 25 1 0
BITMAP
7800
1C00
0E00
0000
3F00
7F80
FFC0
F3C0
E1C0
E1C0
E1C0
E1C0
E1C0
E1C0
E1C0
E1C0
E1C0
E1C0
E1C0
E1C0
E1C0
F3C0
FFC0
7F80
3E00
ENDCHAR
STARTCHAR 00F3
ENCODING 243
SWIDTH 400 0
DWIDTH 12 0
BBX 10 25 1 0
BITMAP
0780
0E00
1C00
0000
3F00
7F80
FFC0
F3C0
E1C0
E1C0
E1C0
E1C0
E1C0
E1C0
E1C0
E1C0
E1C0
E1C0
E1C0
E1C0
E1C0
F3C0
FFC0
7F80
3E00
ENDCHAR
STARTCHAR 00F4
ENCODING 244
SWIDTH 400 0
DWIDTH 12 0
BBX 10 26 1 0
BITMAP
1E00
1E00
3F00
7380
0000
3F00
7F80
FFC0
F3C0
E1C0
E1C0
E1C0
E1C0
E1C0
E1C0
E1C0
E1C0
E1C0
E1C0
E1C0
E1C0
E1C0
F3C0
FFC0
7F80
3E00
ENDCHAR
STARTCHAR 00F5
ENCODING 245
SWIDTH 400 0
DWIDTH 12 0
BBX 10 25 1 0
BITMAP
3980
7F80
6700
0000
3F00
7F80
FFC0
F3C0
E1C0
E1C0
E1C0
E1C0
E1C0
E1C0
E1C0
E1C0
E1C0
E1C0
E1C0
E1C0
E1C0
F3C0
FFC0
7F80
3E00
ENDCHAR
STARTCHAR 00F6
ENCODING 246
SWIDTH 400 0
DWIDTH 12 0
BBX 10 25 1 0
BITMAP
7380
7380
7380
0000
3F00
7F80
FFC0
F3C0
E1C0
E1C0
E1C0
E1C0
E1C0
E1C0
E1C0
E1C0
E1C0
E1C0
E1C0
E1C0
E1C0
F3C0
FFC0
7F80
3E00
ENDCHAR
STARTCHAR 00F7
ENCODING 247
SWIDTH 400 0
DWIDTH 12 0
BBX 10 12 1 4
BITMAP
1E00
1E00
1E00
0000
0000
FFC0
FFC0
0000
0000
1E00
1E00
1E00
ENDCHAR
STARTCHAR 00F8
ENCODING 248
SWIDTH 400 0
DWIDTH 12 0
BBX 10 22 1 -1
BITMAP
3EC0
7FC0
FF80
F3C0
E3C0
E3C0
E3C0
E7C0
E7C0
EFC0
EDC0
EDC0
F9C0
F9C0
F1C0
F1C0
F1C0
F3C0
FFC0
FF80
FE00
4000
ENDCHAR
STARTCHAR 00F9
ENCODING 249
SWIDTH 400 0
DWIDTH 12 0
BBX 10 25 1 0
BITMAP
7800
1C00
0E00
0000
E1C0
E1C0
E1C0
E1C0
E1C0
E1C0
E1C0
E1C0
E1C0
E1C0
E1C0
E1C0
E1C0
E1C0
E1C0
E1C0
E1C0
F3C0
7F80
7F80
3E00
ENDCHAR
STARTCHAR 00FA
ENCODING 250
SWIDTH 400 0
DWIDTH 12 0
BBX 10 25 1 0
BITMAP
0780
0E00
1C00
0000
E1C0
E1C0
E1C0
E1C0
E1C0
E1C0
E1C0
E1C0
E1C0
E1C0
E1C0
E1C0
E1C0
E1C0
E1C0
E1C0
E1C0
F3C0
7F80
7F80
3E00
ENDCHAR
STARTCHAR 00FB
ENCODING 251
SWIDTH 400 0
DWIDTH 12 0
BBX 10 26 1 0
BITMAP
1E00
1E00
3F00
7380
0000
E1C0
E1C0
E1C0
E1C0
E1C0
E1C0
E1C0
E1C0
E1C0
E1C0
E1C0
E1C0
E1C0
E1C0
E1C0
E1C0
E1C0
F3C0
7F80
7F80
3E00
ENDCHAR
STARTCHAR 00FC
ENCODING 252
SWIDTH 400 0
DWIDTH 12 0
BBX 10 25 1 0
BITMAP
7380
7380
7380
0000
E1C0
E1C0
E1C0
E1C0
E1C0
E1C0
E1C0
E1C0
E1C0
E1C0
E1C0
E1C0
E1C0
E1C0
E1C0
E1C0
E1C0
F3C0
7F80
7F80
3E00
ENDCHAR
STARTCHAR 00FD
ENCODING 253
SWIDTH 400 0
DWIDTH 12 0
BBX 12 25 0 0
BITMAP
03C0
0700
0E00
0000
F0F0
70E0
70E0
79C0
39C0
39C0
3F80
1F80
1F80
1F00
0F00
0F00
0F00
0F00
0F00
0F00
0F00
0F00
0F00
0F00
0F00
ENDCHAR
STARTCHAR 00FE
ENCODING 254
SWIDTH 400 0
DWIDTH 12 0
BBX 10 21 1 0
BITMAP
F000
F000
F000
FE00
FF80
FF80
F3C0
F1C0
F1C0
F1C0
F1C0
F1C0
F3C0
FF80
FF80
FE00
F000
F000
F000
F000
F000
ENDCHAR
STARTCHAR 00FF
ENCODING 255
SWIDTH 400 0
DWIDTH 12 0
BBX 12 25 0 0
BITMAP
39C0
39C0
39C0
0000
F0F0
70E0
70E0
79C0
39C0
39C0
3F80
1F80
1F80
1F00
0F00
0F00
0F00
0F00
0F00
0F00
0F00
0F00
0F00
0F00
0F00
ENDCHAR
STARTCHAR 0100
ENCODING 256
SWIDTH 400 0
DWIDTH 12 0
BBX 12 24 0 0
BITMAP
1F80
1F80
0000
0F00
0F00
1F80
1F80
1F80
1F80
1B80
1B80
39C0
39C0
39C0
39C0
39C0
39C0
7FE0
7FE0
7FE0
70E0
70E0
70E0
F0F0
ENDCHAR
STARTCHAR 0101
ENCODING 257
SWIDTH 400 0
DWIDTH 12 0
BBX 12 24 0 0
BITMAP
1F80
1F80
0000
0F00
0F00
1F80
1F80
1F80
1F80
1B80
1B80
39C0
39C0
39C0
39C0
39C0
39C0
7FE0
7FE0
7FE0
70E0
70E0
70E0
F0F0
ENDCHAR
STARTCHAR 0102
ENCODING 258
SWIDTH 400 0
DWIDTH 12 0
BBX 12 26 0 0
BITMAP
30C0
1980
1F80
0F00
0000
0F00
0F00
1F80
1F80
1F80
1F80
1B80
1B80
39C0
39C0
39C0
39C0
39C0
39C0
7FE0
7FE0
7FE0
70E0
70E0
70E0
F0F0
ENDCHAR
STARTCHAR 0103
ENCODING 259
SWIDTH 400 0
DWIDTH 12 0
BBX 12 26 0 0
BITMAP
30C0
1980
1F80
0F00
0000
0F00
0F00
1F80
1F80
1F80
1F80
1B80
1B80
39C0
39C0
39C0
39C0
39C0
39C0
7FE0
7FE0
7FE0
70E0
70E0
70E0
F0F0
ENDCHAR
STARTCHAR 0104
ENCODING 260
SWIDTH 400 0
DWIDTH 12 0
BBX 12 25 0 -4
BITMAP
0F00
0F00
1F80
1F80
1F80
1F80
1B80
1B80
39C0
39C0
39C0
39C0
39C0
39C0
7FE0
7FE0
7FE0
70E0
70E0
70E0
F0F0
00C0
01C0
01F0
00F0
ENDCHAR
STARTCHAR 0105
ENCODING 261
SWIDTH 400 0
DWIDTH 12 0
BBX 12 25 0 -4
BITMAP
0F00
0F00
1F80
1F80
1F80
1F80
1B80
1B80
39C0
39C0
39C0
39C0
39C0
39C0
7FE0
7FE0
7FE0
70E0
70E0
70E0
F0F0
00C0
01C0
01F0
00F0
ENDCHAR
STARTCHAR 0106
ENCODING 262
SWIDTH 366 0
DWIDTH 11 0
BBX 10 25 1 0
BITMAP
0780
0E00
1C00
0000
3E00
7F80
FF80
F3C0
E1C0
E1C0
E1C0
E000
E000
E000
E000
E000
E000
E1C0
E1C0
E1C0
E1C0
F3C0
FF80
7F80
3E00
ENDCHAR
STARTCHAR 0107
ENCODING 263
SWIDTH 366 0
DWIDTH 11 0
BBX 10 25 1 0
BITMAP
0780
0E00
1C00
0000
3E00
7F80
FF80
F3C0
E1C0
E1C0
E1C0
E000
E000
E000
E000
E000
E000
E1C0
E1C0
E1C0
E1C0
F3C0
FF80
7F80
3E00
ENDCHAR
STARTCHAR 0108
ENCODING 264
SWIDTH 366 0
DWIDTH 11 0
BBX 10 26 1 0
BITMAP
1C00
1E00
3F00
7380
0000
3E00
7F80
FF80
F3C0
E1C0
E1C0
E1C0
E000
E000
E000
E000
E000
E000
E1C0
E1C0
E1C0
E1C0
F3C0
FF80
7F80
3E00
ENDCHAR
STARTCHAR 0109
ENCODING 265
SWIDTH 366 0
DWIDTH 11 0
BBX 10 26 1 0
BITMAP
1C00
1E00
3F00
7380
0000
3E00
7F80
FF80
F3C0
E1C0
E1C0
E1C0
E000
E000
E000
E000
E000
E000
E1C0
E1C0
E1C0
E1C0
F3C0
FF80
7F80
3E00
ENDCHAR
STARTCHAR 010A
ENCODING 266
SWIDTH 366 0
DWIDTH 11 0
BBX 10 25 1 0
BITMAP
1C00
1C00
1C00
0000
3E00
7F80
FF80
F3C0
E1C0
E1C0
E1C0
E000
E000
E000
E000
E000
E000
E1C0
E1C0
E1C0
E1C0
F3C0
FF80
7F80
3E00
ENDCHAR
STARTCHAR 010B
ENCODING 267
SWIDTH 366 0
DWIDTH 11 0
BBX 10 25 1 0
BITMAP
1C00
1C00
1C00
0000
3E00
7F80
FF80
F3C0
E1C0
E1C0
E1C0
E000
E000
E000
E000
E000
E000
E1C0
E1C0
E1C0
E1C0
F3C0
FF80
7F80
3E00
ENDCHAR
STARTCHAR 010C
ENCODING 268
SWIDTH 366 0
DWIDTH 11 0
BBX 10 26 1 0
BITMAP
6380
7700
3E00
1E00
0000
3E00
7F80
FF80
F3C0
E1C0
E1C0
E1C0
E000
E000
E000
E000
E000
E000
E1C0
E1C0
E1C0
E1C0
F3C0
FF80
7F80
3E00
ENDCHAR
STARTCHAR 010D
ENCODING 269
SWIDTH 366 0
DWIDTH 11 0
BBX 10 26 1 0
BITMAP
6380
7700
3E00
1E00
0000
3E00
7F80
FF80
F3C0
E1C0
E1C0
E1C0
E000
E000
E000
E000
E000
E000
E1C0
E1C0
E1C0
E1C0
F3C0
FF80
7F80
3E00
ENDCHAR
STARTCHAR 010E
ENCODING 270
SWIDTH 400 0
DWIDTH 12 0
BBX 10 26 1 0
BITMAP
6380
3700
3E00
1E00
0000
FF00
FF80
FFC0
F3C0
F1C0
F1C0
F1C0
F1C0
F1C0
F1C0
F1C0
F1C0
F1C0
F1C0
F1C0
F1C0
F1C0
F3C0
FFC0
FF80
FF00
ENDCHAR
STARTCHAR 010F
ENCODING 271
SWIDTH 400 0
DWIDTH 12 0
BBX 10 26 1 0
BITMAP
6380
3700
3E00
1E00
0000
FF00
FF80
FFC0
F3C0
F1C0
F1C0
F1C0
F1C0
F1C0
F1C0
F1C0
F1C0
F1C0
F1C0
F1C0
F1C0
F1C0
F3C0
FFC0
FF80
FF00
ENDCHAR
STARTCHAR 0110
ENCODING 272
SWIDTH 433 0
DWIDTH 13 0
BBX 12 21 0 0
BITMAP
3F80
3FE0
3FE0
38F0
38F0
38F0
38F0
38F0
38F0
FEF0
FEF0
FEF0
38F0
38F0
38F0
38F0
38F0
38F0
3FE0
3FE0
3F80
ENDCHAR
STARTCHAR 0111
ENCODING 273
SWIDTH 433 0
DWIDTH 13 0
BBX 12 21 0 0
BITMAP
3F80
3FE0
3FE0
38F0
38F0
38F0
38F0
38F0
38F0
FEF0
FEF0
FEF0
38F0
38F0
38F0
38F0
38F0
38F0
3FE0
3FE0
3F80
ENDCHAR
STARTCHAR 0112
ENCODING 274
SWIDTH 366 0
DWIDTH 11 0
BBX 9 24 1 0
BITMAP
7F00
7F00
0000
FF80
FF80
FF80
F000
F000
F000
F000
F000
F000
FF00
FF00
FF00
F000
F000
F000
F000
F000
F000
FF80
FF80
FF80
ENDCHAR
STARTCHAR 0113
ENCODING 275
SWIDTH 366 0
DWIDTH 11 0
BBX 9 24 1 0
BITMAP
7F00
7F00
0000
FF80
FF80
FF80
F000
F000
F000
F000
F000
F000
FF00
FF00
FF00
F000
F000
F000
F000
F000
F000
FF80
FF80
FF80
ENDCHAR
STARTCHAR 0114
ENCODING 276
SWIDTH 366 0
DWIDTH 11 0
BBX 9 26 1 0
BITMAP
6300
7300
3F00
1E00
0000
FF80
FF80
FF80
F000
F000
F000
F000
F000
F000
FF00
FF00
FF00
F000
F000
F000
F000
F000
F000
FF80
FF80
FF80
ENDCHAR
STARTCHAR 0115
ENCODING 277
SWIDTH 366 0
DWIDTH 11 0
BBX 9 26 1 0
BITMAP
6300
7300
3F00
1E00
0000
FF80
FF80
FF80
F000
F000
F000
F000
F000
F000
FF00
FF00
FF00
F000
F000
F000
F000
F000
F000
FF80
FF80
FF80
ENDCHAR
STARTCHAR 0116
ENCODING 278
SWIDTH 366 0
DWIDTH 11 0
BBX 9 25 1 0
BITMAP
1C00
1C00
1C00
0000
FF80
FF80
FF80
F000
F000
F000
F000
F000
F000
FF00
FF00
FF00
F000
F000
F000
F000
F000
F000
FF80
FF80
FF80
ENDCHAR
STARTCHAR 0117
ENCODING 279
SWIDTH 366 0
DWIDTH 11 0
BBX 9 25 1 0
BITMAP
1C00
1C00
1C00
0000
FF80
FF80
FF80
F000
F000
F000
F000
F000
F000
FF00
FF00
FF00
F000
F000
F000
F000
F000
F000
FF80
FF80
FF80
ENDCHAR
STARTCHAR 0118
ENCODING 280
SWIDTH 366 0
DWIDTH 11 0
BBX 9 25 1 -4
BITMAP
FF80
FF80
FF80
F000
F000
F000
F000
F000
F000
FF00
FF00
FF00
F000
F000
F000
F000
F000
F000
FF80
FF80
FF80
0200
0600
0780
0780
ENDCHAR
STARTCHAR 0119
ENCODING 281
SWIDTH 366 0
DWIDTH 11 0
BBX 9 25 1 -4
BITMAP
FF80
FF80
FF80
F000
F000
F000
F000
F000
F000
FF00
FF00
FF00
F000
F000
F000
F000
F000
F000
FF80
FF80
FF80
0200
0600
0780
0780
ENDCHAR
STARTCHAR 011A
ENCODING 282
SWIDTH 366 0
DWIDTH 11 0
BBX 9 26 1 0
BITMAP
6380
7700
3E00
1E00
0000
FF80
FF80
FF80
F000
F000
F000
F000
F000
F000
FF00
FF00
FF00
F000
F000
F000
F000
F000
F000
FF80
FF80
FF80
ENDCHAR
STARTCHAR 011B
ENCODING 283
SWIDTH 366 0
DWIDTH 11 0
BBX 9 26 1 0
BITMAP
6380
7700
3E00
1E00
0000
FF80
FF80
FF80
F000
F000
F000
F000
F000
F000
FF00
FF00
FF00
F000
F000
F000
F000
F000
F000
FF80
FF80
FF80
ENDCHAR
STARTCHAR 011C
ENCODING 284
SWIDTH 400 0
DWIDTH 12 0
BBX 10 26 1 0
BITMAP
1C00
1E00
3F00
7380
0000
3E00
7F80
FF80
F3C0
E1C0
E1C0
E1C0
E000
E000
E7C0
E7C0
E7C0
E1C0
E1C0
E1C0
E1C0
E1C0
F3C0
FF80
7F80
3E00
ENDCHAR
STARTCHAR 011D
ENCODING 285
SWIDTH 400 0
DWIDTH 12 0
BBX 10 26 1 0
BITMAP
1C00
1E00
3F00
7380
0000
3E00
7F80
FF80
F3C0
E1C0
E1C0
E1C0
E000
E000
E7C0
E7C0
E7C0
E1C0
E1C0
E1C0
E1C0
E1C0
F3C0
FF80
7F80
3E00
ENDCHAR
STARTCHAR 011E
ENCODING 286
SWIDTH 400 0
DWIDTH 12 0
BBX 10 26 1 0
BITMAP
6300
7300
3F00
1E00
0000
3E00
7F80
FF80
F3C0
E1C0
E1C0
E1C0
E000
E000
E7C0
E7C0
E7C0
E1C0
E1C0
E1C0
E1C0
E1C0
F3C0
FF80
7F80
3E00
ENDCHAR
STARTCHAR 011F
ENCODING 287
SWIDTH 400 0
DWIDTH 12 0
BBX 10 26 1 0
BITMAP
6300
7300
3F00
1E00
0000
3E00
7F80
FF80
F3C0
E1C0
E1C0
E1C0
E000
E000
E7C0
E7C0
E7C0
E1C0
E1C0
E1C0
E1C0
E1C0
F3C0
FF80
7F80
3E00
ENDCHAR
STARTCHAR 0120
ENCODING 288
SWIDTH 400 0
DWIDTH 12 0
BBX 10 25 1 0
BITMAP
1C00
1C00
1C00
0000
3E00
7F80
FF80
F3C0
E1C0
E1C0
E1C0
E000
E000
E7C0
E7C0
E7C0
E1C0
E1C0
E1C0
E1C0
E1C0
F3C0
FF80
7F80
3E00
ENDCHAR
STARTCHAR 0121
ENCODING 289
SWIDTH 400 0
DWIDTH 12 0
BBX 10 25 1 0
BITMAP
1C00
1C00
1C00
0000
3E00
7F80
FF80
F3C0
E1C0
E1C0
E1C0
E000
E000
E7C0
E7C0
E7C0
E1C0
E1C0
E1C0
E1C0
E1C0
F3C0
FF80
7F80
3E00
ENDCHAR
STARTCHAR 0122
ENCODING 290
SWIDTH 400 0
DWIDTH 12 0
BBX 10 26 1 -5
BITMAP
3E00
7F80
FF80
F3C0
E1C0
E1C0
E1C0
E000
E000
E7C0
E7C0
E7C0
E1C0
E1C0
E1C0
E1C0
E1C0
F3C0
FF80
7F80
3E00
0000
1C00
1C00
1C00
0C00
ENDCHAR
STARTCHAR 0123
ENCODING 291
SWIDTH 400 0
DWIDTH 12 0
BBX 10 26 1 -5
BITMAP
3E00
7F80
FF80
F3C0
E1C0
E1C0
E1C0
E000
E000
E7C0
E7C0
E7C0
E1C0
E1C0
E1C0
E1C0
E1C0
F3C0
FF80
7F80
3E00
0000
1C00
1C00
1C00
0C00
ENDCHAR
STARTCHAR 0124
ENCODING 292
SWIDTH 433 0
DWIDTH 13 0
BBX 10 26 1 0
BITMAP
0E00
1F00
3F00
7380
0000
F1C0
F1C0
F1C0
F1C0
F1C0
F1C0
F1C0
F1C0
F1C0
FFC0
FFC0
FFC0
F1C0
F1C0
F1C0
F1C0
F1C0
F1C0
F1C0
F1C0
F1C0
ENDCHAR
STARTCHAR 0125
ENCODING 293
SWIDTH 433 0
DWIDTH 13 0
BBX 10 26 1 0
BITMAP
0E00
1F00
3F00
7380
0000
F1C0
F1C0
F1C0
F1C0
F1C0
F1C0
F1C0
F1C0
F1C0
FFC0
FFC0
FFC0
F1C0
F1C0
F1C0
F1C0
F1C0
F1C0
F1C0
F1C0
F1C0
ENDCHAR
STARTCHAR 0126
ENCODING 294
SWIDTH 433 0
DWIDTH 13 0
BBX 13 21 0 0
BITMAP
78F0
78F0
78F0
FFF8
FFF8
FFF8
78F0
78F0
78F0
7FF0
7FF0
7FF0
78F0
78F0
78F0
78F0
78F0
78F0
78F0
78F0
78F0
ENDCHAR
STARTCHAR 0127
ENCODING 295
SWIDTH 433 0
DWIDTH 13 0
BBX 13 21 0 0
BITMAP
78F0
78F0
78F0
FFF8
FFF8
FFF8
78F0
78F0
78F0
7FF0
7FF0
7FF0
78F0
78F0
78F0
78F0
78F0
78F0
78F0
78F0
78F0
ENDCHAR
STARTCHAR 0128
ENCODING 296
SWIDTH 200 0
DWIDTH 6 0
BBX 8 25 -1 0
BITMAP
73
FF
CE
00
3C
3C
3C
3C
3C
3C
3C
3C
3C
3C
3C
3C
3C
3C
3C
3C
3C
3C
3C
3C
3C
ENDCHAR
STARTCHAR 0129
ENCODING 297
SWIDTH 200 0
DWIDTH 6 0
BBX 8 25 -1 0
BITMAP
73
FF
CE
00
3C
3C
3C
3C
3C
3C
3C
3C
3C
3C
3C
3C
3C
3C
3C
3C
3C
3C
3C
3C
3C
ENDCHAR
STARTCHAR 012A
ENCODING 298
SWIDTH 200 0
DWIDTH 6 0
BBX 7 24 -1 0
BITMAP
FE
FE
00
3C
3C
3C
3C
3C
3C
3C
3C
3C
3C
3C
3C
3C
3C
3C
3C
3C
3C
3C
3C
3C
ENDCHAR
STARTCHAR 012B
ENCODING 299
SWIDTH 200 0
DWIDTH 6 0
BBX 7 24 -1 0
BITMAP
FE
FE
00
3C
3C
3C
3C
3C
3C
3C
3C
3C
3C
3C
3C
3C
3C
3C
3C
3C
3C
3C
3C
3C
ENDCHAR
STARTCHAR 012C
ENCODING 300
SWIDTH 200 0
DWIDTH 6 0
BBX 7 26 -1 0
BITMAP
C6
E6
7E
3C
00
3C
3C
3C
3C
3C
3C
3C
3C
3C
3C
3C
3C
3C
3C
3C
3C
3C
3C
3C
3C
3C
ENDCHAR
STARTCHAR 012D
ENCODING 301
SWIDTH 200 0
DWIDTH 6 0
BBX 7 26 -1 0
BITMAP
C6
E6
7E
3C
00
3C
3C
3C
3C
3C
3C
3C
3C
3C
3C
3C
3C
3C
3C
3C
3C
3C
3C
3C
3C
3C
ENDCHAR
STARTCHAR 012E
ENCODING 302
SWIDTH 200 0
DWIDTH 6 0
BBX 4 25 1 -4
BITMAP
F0
F0
F0
F0
F0
F0
F0
F0
F0
F0
F0
F0
F0
F0
F0
F0
F0
F0
F0
F0
F0
40
C0
F0
F0
ENDCHAR
STARTCHAR 012F
ENCODING 303
SWIDTH 200 0
DWIDTH 6 0
BBX 4 25 1 -4
BITMAP
F0
F0
F0
F0
F0
F0
F0
F0
F0
F0
F0
F0
F0
F0
F0
F0
F0
F0
F0
F0
F0
40
C0
F0
F0
ENDCHAR
STARTCHAR 0130
ENCODING 304
SWIDTH 200 0
DWIDTH 6 0
BBX 4 25 1 0
BITMAP
E0
E0
E0
00
F0
F0
F0
F0
F0
F0
F0
F0
F0
F0
F0
F0
F0
F0
F0
F0
F0
F0
F0
F0
F0
ENDCHAR
STARTCHAR 0131
ENCODING 305
SWIDTH 200 0
DWIDTH 6 0
BBX 4 21 1 0
BITMAP
F0
F0
F0
F0
F0
F0
F0
F0
F0
F0
F0
F0
F0
F0
F0
F0
F0
F0
F0
F0
F0
ENDCHAR
STARTCHAR 0132
ENCODING 306
SWIDTH 466 0
DWIDTH 14 0
BBX 12 21 1 0
BITMAP
F0F0
F0F0
F0F0
F0F0
F0F0
F0F0
F0F0
F0F0
F0F0
F0F0
F0F0
F0F0
F0F0
F0F0
F0F0
F0F0
F0F0
F0E0
F7E0
F7E0
F780
ENDCHAR
STARTCHAR 0133
ENCODING 307
SWIDTH 466 0
DWIDTH 14 0
BBX 12 21 1 0
BITMAP
F0F0
F0F0
F0F0
F0F0
F0F0
F0F0
F0F0
F0F0
F0F0
F0F0
F0F0
F0F0
F0F0
F0F0
F0F0
F0F0
F0F0
F0E0
F7E0
F7E0
F780
ENDCHAR
STARTCHAR 0134
ENCODING 308
SWIDTH 266 0
DWIDTH 8 0
BBX 9 26 0 0
BITMAP
1C00
3E00
3F00
7380
0000
0E00
0E00
0E00
0E00
0E00
0E00
0E00
0E00
0E00
0E00
0E00
0E00
0E00
0E00
0E00
0E00
1E00
1E00
FC00
FC00
F800
ENDCHAR
STARTCHAR 0135
ENCODING 309
SWIDTH 266 0
DWIDTH 8 0
BBX 9 26 0 0
BITMAP
1C00
3E00
3F00
7380
0000
0E00
0E00
0E00
0E00
0E00
0E00
0E00
0E00
0E00
0E00
0E00
0E00
0E00
0E00
0E00
0E00
1E00
1E00
FC00
FC00
F800
ENDCHAR
STARTCHAR 0136
ENCODING 310
SWIDTH 400 0
DWIDTH 12 0
BBX 11 26 1 -5
BITMAP
F1E0
F1C0
F1C0
F380
F380
F700
F700
FE00
FE00
FF00
FF00
FF00
F780
F780
F380
F380
F3C0
F1C0
F1C0
F1E0
F1E0
0000
0E00
0E00
0E00
0C00
ENDCHAR
STARTCHAR 0137
ENCODING 311
SWIDTH 400 0
DWIDTH 12 0
BBX 11 26 1 -5
BITMAP
F1E0
F1C0
F1C0
F380
F380
F700
F700
FE00
FE00
FF00
FF00
FF00
F780
F780
F380
F380
F3C0
F1C0
F1C0
F1E0
F1E0
0000
0E00
0E00
0E00
0C00
ENDCHAR
STARTCHAR 0138
ENCODING 312
SWIDTH 400 0
DWIDTH 12 0
BBX 11 21 1 0
BITMAP
F1E0
F1C0
F1C0
F380
F380
F700
F700
FE00
FE00
FF00
FF00
FF00
F780
F780
F380
F380
F3C0
F1C0
F1C0
F1E0
F1E0
ENDCHAR
STARTCHAR 0139
ENCODING 313
SWIDTH 333 0
DWIDTH 10 0
BBX 9 25 1 0
BITMAP
3C00
7800
E000
0000
F000
F000
F000
F000
F000
F000
F000
F000
F000
F000
F000
F000
F000
F000
F000
F000
F000
F000
FF80
FF80
FF80
ENDCHAR
STARTCHAR 013A
ENCODING 314
SWIDTH 333 0
DWIDTH 10 0
BBX 9 25 1 0
BITMAP
3C00
7800
E000
0000
F000
F000
F000
F000
F000
F000
F000
F000
F000
F000
F000
F000
F000
F000
F000
F000
F000
F000
FF80
FF80
FF80
ENDCHAR
STARTCHAR 013B
ENCODING 315
SWIDTH 333 0
DWIDTH 10 0
BBX 9 26 1 -5
BITMAP
F000
F000
F000
F000
F000
F000
F000
F000
F000
F000
F000
F000
F000
F000
F000
F000
F000
F000
FF80
FF80
FF80
0000
1C00
1C00
1C00
0800
ENDCHAR
STARTCHAR 013C
ENCODING 316
SWIDTH 333 0
DWIDTH 10 0
BBX 9 26 1 -5
BITMAP
F000
F000
F000
F000
F000
F000
F000
F000
F000
F000
F000
F000
F000
F000
F000
F000
F000
F000
FF80
FF80
FF80
0000
1C00
1C00
1C00
0800
ENDCHAR
STARTCHAR 013D
ENCODING 317
SWIDTH 333 0
DWIDTH 10 0
BBX 9 21 1 0
BITMAP
F700
F700
F700
F300
F300
F200
F000
F000
F000
F000
F000
F000
F000
F000
F000
F000
F000
F000
FF80
FF80
FF80
ENDCHAR
STARTCHAR 013E
ENCODING 318
SWIDTH 333 0
DWIDTH 10 0
BBX 9 21 1 0
BITMAP
F700
F700
F700
F300
F300
F200
F000
F000
F000
F000
F000
F000
F000
F000
F000
F000
F000
F000
FF80
FF80
FF80
ENDCHAR
STARTCHAR 013F
ENCODING 319
SWIDTH 333 0
DWIDTH 10 0
BBX 9 21 1 0
BITMAP
F000
F000
F000
F000
F000
F000
F000
F000
F000
F780
F780
F780
F000
F000
F000
F000
F000
F000
FF80
FF80
FF80
ENDCHAR
STARTCHAR 0140
ENCODING 320
SWIDTH 333 0
DWIDTH 10 0
BBX 9 21 1 0
BITMAP
F000
F000
F000
F000
F000
F000
F000
F000
F000
F780
F780
F780
F000
F000
F000
F000
F000
F000
FF80
FF80
FF80
ENDCHAR
STARTCHAR 0141
ENCODING 321
SWIDTH 366 0
DWIDTH 11 0
BBX 11 21 0 0
BITMAP
3800
3800
3800
3800
3800
3880
3880
3980
3B80
3F00
3E00
3C00
3800
7800
F800
F800
F800
B800
3FE0
3FE0
3FE0
ENDCHAR
STARTCHAR 0142
ENCODING 322
SWIDTH 366 0
DWIDTH 11 0
BBX 11 21 0 0
BITMAP
3800
3800
3800
3800
3800
3880
3880
3980
3B80
3F00
3E00
3C00
3800
7800
F800
F800
F800
B800
3FE0
3FE0
3FE0
ENDCHAR
STARTCHAR 0143
ENCODING 323
SWIDTH 433 0
DWIDTH 13 0
BBX 11 25 1 0
BITMAP
0780
0700
0E00
0000
F8E0
F8E0
F8E0
F8E0
FCE0
FCE0
FCE0
ECE0
EEE0
EEE0
EEE0
E6E0
E7E0
E7E0
E7E0
E3E0
E3E0
E3E0
E1E0
E1E0
E1E0
ENDCHAR
STARTCHAR 0144
ENCODING 324
SWIDTH 433 0
DWIDTH 13 0
BBX 11 25 1 0
BITMAP
0780
0700
0E00
0000
F8E0
F8E0
F8E0
F8E0
FCE0
FCE0
FCE0
ECE0
EEE0
EEE0
EEE0
E6E0
E7E0
E7E0
E7E0
E3E0
E3E0
E3E0
E1E0
E1E0
E1E0
ENDCHAR
STARTCHAR 0145
ENCODING 325
SWIDTH 433 0
DWIDTH 13 0
BBX 11 26 1 -5
BITMAP
F8E0
F8E0
F8E0
F8E0
FCE0
FCE0
FCE0
ECE0
EEE0
EEE0
EEE0
E6E0
E7E0
E7E0
E7E0
E3E0
E3E0
E3E0
E1E0
E1E0
E1E0
0000
0E00
0E00
0E00
0C00
ENDCHAR
STARTCHAR 0146
ENCODING 326
SWIDTH 433 0
DWIDTH 13 0
BBX 11 26 1 -5
BITMAP
F8E0
F8E0
F8E0
F8E0
FCE0
FCE0
FCE0
ECE0
EEE0
EEE0
EEE0
E6E0
E7E0
E7E0
E7E0
E3E0
E3E0
E3E0
E1E0
E1E0
E1E0
0000
0E00
0E00
0E00
0C00
ENDCHAR
STARTCHAR 0147
ENCODING 327
SWIDTH 433 0
DWIDTH 13 0
BBX 11 26 1 0
BITMAP
7180
3B80
1F00
0E00
0000
F8E0
F8E0
F8E0
F8E0
FCE0
FCE0
FCE0
ECE0
EEE0
EEE0
EEE0
E6E0
E7E0
E7E0
E7E0
E3E0
E3E0
E3E0
E1E0
E1E0
E1E0
ENDCHAR
STARTCHAR 0148
ENCODING 328
SWIDTH 433 0
DWIDTH 13 0
BBX 11 26 1 0
BITMAP
7180
3B80
1F00
0E00
0000
F8E0
F8E0
F8E0
F8E0
FCE0
FCE0
FCE0
ECE0
EEE0
EEE0
EEE0
E6E0
E7E0
E7E0
E7E0
E3E0
E3E0
E3E0
E1E0
E1E0
E1E0
ENDCHAR
STARTCHAR 0149
ENCODING 329
SWIDTH 533 0
DWIDTH 16 0
BBX 15 21 0 0
BITMAP
E78E
E78E
E78E
67CE
67CE
C7CE
07CE
07EE
07EE
076E
076E
077E
077E
073E
073E
073E
073E
071E
071E
071E
070E
ENDCHAR
STARTCHAR 014A
ENCODING 330
SWIDTH 433 0
DWIDTH 13 0
BBX 11 26 1 -5
BITMAP
F8E0
F8E0
F8E0
F8E0
FCE0
FCE0
FCE0
ECE0
EEE0
EEE0
E6E0
E6E0
E7E0
E7E0
E3E0
E3E0
E3E0
E1E0
E1E0
E1E0
E1E0
01E0
01C0
07C0
07C0
0700
ENDCHAR
STARTCHAR 014B
ENCODING 331
SWIDTH 433 0
DWIDTH 13 0
BBX 11 26 1 -5
BITMAP
F8E0
F8E0
F8E0
F8E0
FCE0
FCE0
FCE0
ECE0
EEE0
EEE0
E6E0
E6E0
E7E0
E7E0
E3E0
E3E0
E3E0
E1E0
E1E0
E1E0
E1E0
01E0
01C0
07C0
07C0
0700
ENDCHAR
STARTCHAR 014C
ENCODING 332
SWIDTH 400 0
DWIDTH 12 0
BBX 10 24 1 0
BITMAP
3F00
3F00
0000
3F00
7F80
FFC0
F3C0
E1C0
E1C0
E1C0
E1C0
E1C0
E1C0
E1C0
E1C0
E1C0
E1C0
E1C0
E1C0
E1C0
F3C0
FFC0
7F80
3E00
ENDCHAR
STARTCHAR 014D
ENCODING 333
SWIDTH 400 0
DWIDTH 12 0
BBX 10 24 1 0
BITMAP
3F00
3F00
0000
3F00
7F80
FFC0
F3C0
E1C0
E1C0
E1C0
E1C0
E1C0
E1C0
E1C0
E1C0
E1C0
E1C0
E1C0
E1C0
E1C0
F3C0
FFC0
7F80
3E00
ENDCHAR
STARTCHAR 014E
ENCODING 334
SWIDTH 400 0
DWIDTH 12 0
BBX 10 26 1 0
BITMAP
6180
3300
3F00
1E00
0000
3F00
7F80
FFC0
F3C0
E1C0
E1C0
E1C0
E1C0
E1C0
E1C0
E1C0
E1C0
E1C0
E1C0
E1C0
E1C0
E1C0
F3C0
FFC0
7F80
3E00
ENDCHAR
STARTCHAR 014F
ENCODING 335
SWIDTH 400 0
DWIDTH 12 0
BBX 10 26 1 0
BITMAP
6180
3300
3F00
1E00
0000
3F00
7F80
FFC0
F3C0
E1C0
E1C0
E1C0
E1C0
E1C0
E1C0
E1C0
E1C0
E1C0
E1C0
E1C0
E1C0
E1C0
F3C0
FFC0
7F80
3E00
ENDCHAR
STARTCHAR 0150
ENCODING 336
SWIDTH 400 0
DWIDTH 12 0
BBX 11 25 1 0
BITMAP
1DE0
3B80
7700
0000
3F00
7F80
FFC0
F3C0
E1C0
E1C0
E1C0
E1C0
E1C0
E1C0
E1C0
E1C0
E1C0
E1C0
E1C0
E1C0
E1C0
F3C0
FFC0
7F80
3E00
ENDCHAR
STARTCHAR 0151
ENCODING 337
SWIDTH 400 0
DWIDTH 12 0
BBX 11 25 1 0
BITMAP
1DE0
3B80
7700
0000
3F00
7F80
FFC0
F3C0
E1C0
E1C0
E1C0
E1C0
E1C0
E1C0
E1C0
E1C0
E1C0
E1C0
E1C0
E1C0
E1C0
F3C0
FFC0
7F80
3E00
ENDCHAR
STARTCHAR 0152
ENCODING 338
SWIDTH 566 0
DWIDTH 17 0
BBX 16 21 1 0
BITMAP
3FFF
7FFF
FFFF
F1C0
E1C0
E1C0
E1C0
E1C0
E1C0
E1FC
E1FC
E1FC
E1C0
E1C0
E1C0
E1C0
E1C0
F1C0
FFFF
7FFF
3FFF
ENDCHAR
STARTCHAR 0153
ENCODING 339
SWIDTH 566 0
DWIDTH 17 0
BBX 16 21 1 0
BITMAP
3FFF
7FFF
FFFF
F1C0
E1C0
E1C0
E1C0
E1C0
E1C0
E1FC
E1FC
E1FC
E1C0
E1C0
E1C0
E1C0
E1C0
F1C0
FFFF
7FFF
3FFF
ENDCHAR
STARTCHAR 0154
ENCODING 340
SWIDTH 400 0
DWIDTH 12 0
BBX 10 25 1 0
BITMAP
0780
0E00
1C00
0000
FF00
FF80
FFC0
F3C0
F1C0
F1C0
F1C0
F1C0
F3C0
FF80
FF00
FF80
F3C0
F1C0
F1C0
F1C0
F1C0
F1C0
F1C0
F1C0
F1C0
ENDCHAR
STARTCHAR 0155
ENCODING 341
SWIDTH 400 0
DWIDTH 12 0
BBX 10 25 1 0
BITMAP
0780
0E00
1C00
0000
FF00
FF80
FFC0
F3C0
F1C0
F1C0
F1C0
F1C0
F3C0
FF80
FF00
FF80
F3C0
F1C0
F1C0
F1C0
F1C0
F1C0
F1C0
F1C0
F1C0
ENDCHAR
STARTCHAR 0156
ENCODING 342
SWIDTH 400 0
DWIDTH 12 0
BBX 10 26 1 -5
BITMAP
FF00
FF80
FFC0
F3C0
F1C0
F1C0
F1C0
F1C0
F3C0
FF80
FF00
FF80
F3C0
F1C0
F1C0
F1C0
F1C0
F1C0
F1C0
F1C0
F1C0
0000
0C00
0C00
0C00
0C00
ENDCHAR
STARTCHAR 0157
ENCODING 343
SWIDTH 400 0
DWIDTH 12 0
BBX 10 26 1 -5
BITMAP
FF00
FF80
FFC0
F3C0
F1C0
F1C0
F1C0
F1C0
F3C0
FF80
FF00
FF80
F3C0
F1C0
F1C0
F1C0
F1C0
F1C0
F1C0
F1C0
F1C0
0000
0C00
0C00
0C00
0C00
ENDCHAR
STARTCHAR 0158
ENCODING 344
SWIDTH 400 0
DWIDTH 12 0
BBX 10 26 1 0
BITMAP
6380
7700
3E00
1E00
0000
FF00
FF80
FFC0
F3C0
F1C0
F1C0
F1C0
F1C0
F3C0
FF80
FF00
FF80
F3C0
F1C0
F1C0
F1C0
F1C0
F1C0
F1C0
F1C0
F1C0
ENDCHAR
STARTCHAR 0159
ENCODING 345
SWIDTH 400 0
DWIDTH 12 0
BBX 10 26 1 0
BITMAP
6380
7700
3E00
1E00
0000
FF00
FF80
FFC0
F3C0
F1C0
F1C0
F1C0
F1C0
F3C0
FF80
FF00
FF80
F3C0
F1C0
F1C0
F1C0
F1C0
F1C0
F1C0
F1C0
F1C0
ENDCHAR
STARTCHAR 015A
ENCODING 346
SWIDTH 366 0
DWIDTH 11 0
BBX 10 25 1 0
BITMAP
0700
0E00
1C00
0000
3E00
7F00
FF80
E380
E380
E380
E000
F000
7800
7C00
3E00
1F00
0780
0780
0380
E3C0
E380
E380
FF80
7F00
3E00
ENDCHAR
STARTCHAR 015B
ENCODING 347
SWIDTH 366 0
DWIDTH 11 0
BBX 10 25 1 0
BITMAP
0700
0E00
1C00
0000
3E00
7F00
FF80
E380
E380
E380
E000
F000
7800
7C00
3E00
1F00
0780
0780
0380
E3C0
E380
E380
FF80
7F00
3E00
ENDCHAR
STARTCHAR 015C
ENCODING 348
SWIDTH 366 0
DWIDTH 11 0
BBX 10 26 1 0
BITMAP
1C00
3E00
3700
7380
0000
3E00
7F00
FF80
E380
E380
E380
E000
F000
7800
7C00
3E00
1F00
0780
0780
0380
E3C0
E380
E380
FF80
7F00
3E00
ENDCHAR
STARTCHAR 015D
ENCODING 349
SWIDTH 366 0
DWIDTH 11 0
BBX 10 26 1 0
BITMAP
1C00
3E00
3700
7380
0000
3E00
7F00
FF80
E380
E380
E380
E000
F000
7800
7C00
3E00
1F00
0780
0780
0380
E3C0
E380
E380
FF80
7F00
3E00
ENDCHAR
STARTCHAR 015E
ENCODING 350
SWIDTH 366 0
DWIDTH 11 0
BBX 10 25 1 -4
BITMAP
3E00
7F00
FF80
E380
E380
E380
E000
F000
F800
7C00
3E00
1F00
0F80
0780
0380
E3C0
E380
E380
E380
FF80
7E00
1800
0E00
7600
3E00
ENDCHAR
STARTCHAR 015F
ENCODING 351
SWIDTH 366 0
DWIDTH 11 0
BBX 10 25 1 -4
BITMAP
3E00
7F00
FF80
E380
E380
E380
E000
F000
F800
7C00
3E00
1F00
0F80
0780
0380
E3C0
E380
E380
E380
FF80
7E00
1800
0E00
7600
3E00
ENDCHAR
STARTCHAR 0160
ENCODING 352
SWIDTH 366 0
DWIDTH 11 0
BBX 10 26 1 0
BITMAP
6380
7700
3E00
1E00
0000
3E00
7F00
FF80
E380
E380
E380
E000
F000
7800
7C00
3E00
1F00
0780
0780
0380
E3C0
E380
E380
FF80
7F00
3E00
ENDCHAR
STARTCHAR 0161
ENCODING 353
SWIDTH 366 0
DWIDTH 11 0
BBX 10 26 1 0
BITMAP
6380
7700
3E00
1E00
0000
3E00
7F00
FF80
E380
E380
E380
E000
F000
7800
7C00
3E00
1F00
0780
0780
0380
E3C0
E380
E380
FF80
7F00
3E00
ENDCHAR
STARTCHAR 0162
ENCODING 354
SWIDTH 366 0
DWIDTH 11 0
BBX 11 25 0 -4
BITMAP
FFE0
FFE0
FFE0
0E00
0E00
0E00
0E00
0E00
0E00
0E00
0E00
0E00
0E00
0E00
0E00
0E00
0E00
0E00
0E00
0E00
0E00
0400
0700
3B00
1F00
ENDCHAR
STARTCHAR 0163
ENCODING 355
SWIDTH 366 0
DWIDTH 11 0
BBX 11 25 0 -4
BITMAP
FFE0
FFE0
FFE0
0E00
0E00
0E00
0E00
0E00
0E00
0E00
0E00
0E00
0E00
0E00
0E00
0E00
0E00
0E00
0E00
0E00
0E00
0400
0700
3B00
1F00
ENDCHAR
STARTCHAR 0164
ENCODING 356
SWIDTH 366 0
DWIDTH 11 0
BBX 11 26 0 0
BITMAP
7180
3B80
1F00
0E00
0000
FFE0
FFE0
FFE0
0E00
0E00
0E00
0E00
0E00
0E00
0E00
0E00
0E00
0E00
0E00
0E00
0E00
0E00
0E00
0E00
0E00
0E00
ENDCHAR
STARTCHAR 0165
ENCODING 357
SWIDTH 366 0
DWIDTH 11 0
BBX 11 26 0 0
BITMAP
7180
3B80
1F00
0E00
0000
FFE0
FFE0
FFE0
0E00
0E00
0E00
0E00
0E00
0E00
0E00
0E00
0E00
0E00
0E00
0E00
0E00
0E00
0E00
0E00
0E00
0E00
ENDCHAR
STARTCHAR 0166
ENCODING 358
SWIDTH 366 0
DWIDTH 11 0
BBX 11 21 0 0
BITMAP
FFE0
FFE0
FFE0
0E00
0E00
0E00
0E00
0E00
0E00
3F80
3F80
3F80
0E00
0E00
0E00
0E00
0E00
0E00
0E00
0E00
0E00
ENDCHAR
STARTCHAR 0167
ENCODING 359
SWIDTH 366 0
DWIDTH 11 0
BBX 11 21 0 0
BITMAP
FFE0
FFE0
FFE0
0E00
0E00
0E00
0E00
0E00
0E00
3F80
3F80
3F80
0E00
0E00
0E00
0E00
0E00
0E00
0E00
0E00
0E00
ENDCHAR
STARTCHAR 0168
ENCODING 360
SWIDTH 400 0
DWIDTH 12 0
BBX 10 25 1 0
BITMAP
3D80
7F80
6700
0000
E1C0
E1C0
E1C0
E1C0
E1C0
E1C0
E1C0
E1C0
E1C0
E1C0
E1C0
E1C0
E1C0
E1C0
E1C0
E1C0
E1C0
F3C0
7F80
7F80
3E00
ENDCHAR
STARTCHAR 0169
ENCODING 361
SWIDTH 400 0
DWIDTH 12 0
BBX 10 25 1 0
BITMAP
3D80
7F80
6700
0000
E1C0
E1C0
E1C0
E1C0
E1C0
E1C0
E1C0
E1C0
E1C0
E1C0
E1C0
E1C0
E1C0
E1C0
E1C0
E1C0
E1C0
F3C0
7F80
7F80
3E00
ENDCHAR
STARTCHAR 016A
ENCODING 362
SWIDTH 400 0
DWIDTH 12 0
BBX 10 24 1 0
BITMAP
3F00
3F00
0000
E1C0
E1C0
E1C0
E1C0
E1C0
E1C0
E1C0
E1C0
E1C0
E1C0
E1C0
E1C0
E1C0
E1C0
E1C0
E1C0
E1C0
F3C0
7F80
7F80
3E00
ENDCHAR
STARTCHAR 016B
ENCODING 363
SWIDTH 400 0
DWIDTH 12 0
BBX 10 24 1 0
BITMAP
3F00
3F00
0000
E1C0
E1C0
E1C0
E1C0
E1C0
E1C0
E1C0
E1C0
E1C0
E1C0
E1C0
E1C0
E1C0
E1C0
E1C0
E1C0
E1C0
F3C0
7F80
7F80
3E00
ENDCHAR
STARTCHAR 016C
ENCODING 364
SWIDTH 400 0
DWIDTH 12 0
BBX 10 26 1 0
BITMAP
6180
3300
3F00
1E00
0000
E1C0
E1C0
E1C0
E1C0
E1C0
E1C0
E1C0
E1C0
E1C0
E1C0
E1C0
E1C0
E1C0
E1C0
E1C0
E1C0
E1C0
F3C0
7F80
7F80
3E00
ENDCHAR
STARTCHAR 016D
ENCODING 365
SWIDTH 400 0
DWIDTH 12 0
BBX 10 26 1 0
BITMAP
6180
3300
3F00
1E00
0000
E1C0
E1C0
E1C0
E1C0
E1C0
E1C0
E1C0
E1C0
E1C0
E1C0
E1C0
E1C0
E1C0
E1C0
E1C0
E1C0
E1C0
F3C0
7F80
7F80
3E00
ENDCHAR
STARTCHAR 016E
ENCODING 366
SWIDTH 400 0
DWIDTH 12 0
BBX 10 27 1 0
BITMAP
1E00
1E00
3300
1E00
1E00
0000
E1C0
E1C0
E1C0
E1C0
E1C0
E1C0
E1C0
E1C0
E1C0
E1C0
E1C0
E1C0
E1C0
E1C0
E1C0
E1C0
E1C0
F3C0
7F80
7F80
3E00
ENDCHAR
STARTCHAR 016F
ENCODING 367
SWIDTH 400 0
DWIDTH 12 0
BBX 10 27 1 0
BITMAP
1E00
1E00
3300
1E00
1E00
0000
E1C0
E1C0
E1C0
E1C0
E1C0
E1C0
E1C0
E1C0
E1C0
E1C0
E1C0
E1C0
E1C0
E1C0
E1C0
E1C0
E1C0
F3C0
7F80
7F80
3E00
ENDCHAR
STARTCHAR 0170
ENCODING 368
SWIDTH 400 0
DWIDTH 12 0
BBX 11 25 1 0
BITMAP
1DE0
3980
7700
0000
E1C0
E1C0
E1C0
E1C0
E1C0
E1C0
E1C0
E1C0
E1C0
E1C0
E1C0
E1C0
E1C0
E1C0
E1C0
E1C0
E1C0
F3C0
7F80
7F80
3E00
ENDCHAR
STARTCHAR 0171
ENCODING 369
SWIDTH 400 0
DWIDTH 12 0
BBX 11 25 1 0
BITMAP
1DE0
3980
7700
0000
E1C0
E1C0
E1C0
E1C0
E1C0
E1C0
E1C0
E1C0
E1C0
E1C0
E1C0
E1C0
E1C0
E1C0
E1C0
E1C0
E1C0
F3C0
7F80
7F80
3E00
ENDCHAR
STARTCHAR 0172
ENCODING 370
SWIDTH 400 0
DWIDTH 12 0
BBX 10 25 1 -4
BITMAP
E1C0
E1C0
E1C0
E1C0
E1C0
E1C0
E1C0
E1C0
E1C0
E1C0
E1C0
E1C0
E1C0
E1C0
E1C0
E1C0
E1C0
F3C0
7F80
7F80
3E00
0C00
1C00
1F00
0F00
ENDCHAR
STARTCHAR 0173
ENCODING 371
SWIDTH 400 0
DWIDTH 12 0
BBX 10 25 1 -4
BITMAP
E1C0
E1C0
E1C0
E1C0
E1C0
E1C0
E1C0
E1C0
E1C0
E1C0
E1C0
E1C0
E1C0
E1C0
E1C0
E1C0
E1C0
F3C0
7F80
7F80
3E00
0C00
1C00
1F00
0F00
ENDCHAR
STARTCHAR 0174
ENCODING 372
SWIDTH 566 0
DWIDTH 17 0
BBX 16 26 0 0
BITMAP
01C0
03E0
0760
0E70
0000
F1C7
71C7
73E7
73E7
73E7
73E7
73E7
7367
7366
7366
3B6E
3B6E
3F7E
3F7E
3F7E
3F7E
3E3E
3E3E
3E3C
3E3C
1E3C
ENDCHAR
STARTCHAR 0175
ENCODING 373
SWIDTH 566 0
DWIDTH 17 0
BBX 16 26 0 0
BITMAP
01C0
03E0
0760
0E70
0000
F1C7
71C7
73E7
73E7
73E7
73E7
73E7
7367
7366
7366
3B6E
3B6E
3F7E
3F7E
3F7E
3F7E
3E3E
3E3E
3E3C
3E3C
1E3C
ENDCHAR
STARTCHAR 0176
ENCODING 374
SWIDTH 400 0
DWIDTH 12 0
BBX 12 26 0 0
BITMAP
0E00
0F00
1F80
39C0
0000
F0F0
70E0
70E0
79C0
39C0
39C0
3F80
1F80
1F80
1F00
0F00
0F00
0F00
0F00
0F00
0F00
0F00
0F00
0F00
0F00
0F00
ENDCHAR
STARTCHAR 0177
ENCODING 375
SWIDTH 400 0
DWIDTH 12 0
BBX 12 26 0 0
BITMAP
0E00
0F00
1F80
39C0
0000
F0F0
70E0
70E0
79C0
39C0
39C0
3F80
1F80
1F80
1F00
0F00
0F00
0F00
0F00
0F00
0F00
0F00
0F00
0F00
0F00
0F00
ENDCHAR
STARTCHAR 0178
ENCODING 376
SWIDTH 400 0
DWIDTH 12 0
BBX 12 25 0 0
BITMAP
39C0
39C0
39C0
0000
F0F0
70E0
70E0
79C0
39C0
39C0
3F80
1F80
1F80
1F00
0F00
0F00
0F00
0F00
0F00
0F00
0F00
0F00
0F00
0F00
0F00
ENDCHAR
STARTCHAR 0179
ENCODING 377
SWIDTH 366 0
DWIDTH 11 0
BBX 9 25 1 0
BITMAP
0700
0E00
1C00
0000
FF80
FF80
FF80
0780
0780
0700
0F00
0E00
1E00
1E00
1C00
3C00
3800
7800
7800
7000
F000
E000
FF80
FF80
FF80
ENDCHAR
STARTCHAR 017A
ENCODING 378
SWIDTH 366 0
DWIDTH 11 0
BBX 9 25 1 0
BITMAP
0700
0E00
1C00
0000
FF80
FF80
FF80
0780
0780
0700
0F00
0E00
1E00
1E00
1C00
3C00
3800
7800
7800
7000
F000
E000
FF80
FF80
FF80
ENDCHAR
STARTCHAR 017B
ENCODING 379
SWIDTH 366 0
DWIDTH 11 0
BBX 9 25 1 0
BITMAP
1C00
1C00
1C00
0000
FF80
FF80
FF80
0780
0780
0700
0F00
0E00
1E00
1E00
1C00
3C00
3800
7800
7800
7000
F000
E000
FF80
FF80
FF80
ENDCHAR
STARTCHAR 017C
ENCODING 380
SWIDTH 366 0
DWIDTH 11 0
BBX 9 25 1 0
BITMAP
1C00
1C00
1C00
0000
FF80
FF80
FF80
0780
0780
0700
0F00
0E00
1E00
1E00
1C00
3C00
3800
7800
7800
7000
F000
E000
FF80
FF80
FF80
ENDCHAR
STARTCHAR 017D
ENCODING 381
SWIDTH 366 0
DWIDTH 11 0
BBX 9 26 1 0
BITMAP
6380
7700
3E00
1C00
0000
FF80
FF80
FF80
0780
0780
0700
0F00
0E00
1E00
1E00
1C00
3C00
3800
7800
7800
7000
F000
E000
FF80
FF80
FF80
ENDCHAR
STARTCHAR 017E
ENCODING 382
SWIDTH 366 0
DWIDTH 11 0
BBX 9 26 1 0
BITMAP
6380
7700
3E00
1C00
0000
FF80
FF80
FF80
0780
0780
0700
0F00
0E00
1E00
1E00
1C00
3C00
3800
7800
7800
7000
F000
E000
FF80
FF80
FF80
ENDCHAR
STARTCHAR 0192
ENCODING 402
SWIDTH 400 0
DWIDTH 12 0
BBX 10 24 1 -2
BITMAP
3600
3600
FF00
FF80
FFC0
73C0
71C0
71C0
71C0
73C0
7F80
7F00
7F80
73C0
71C0
71C0
71C0
71C0
71C0
FFC0
FF80
FF00
3600
3600
ENDCHAR
STARTCHAR 01FC
ENCODING 508
SWIDTH 566 0
DWIDTH 17 0
BBX 17 25 0 0
BITMAP
007800
00E000
01C000
000000
03FF80
07FF80
07FF80
07E000
07E000
0EE000
0EE000
0EE000
0EE000
1CFF00
1CFF00
1CFF00
1CE000
38E000
3FE000
3FE000
7FE000
70E000
70FF80
70FF80
F0FF80
ENDCHAR
STARTCHAR 01FD
ENCODING 509
SWIDTH 566 0
DWIDTH 17 0
BBX 17 25 0 0
BITMAP
007800
00E000
01C000
000000
03FF80
07FF80
07FF80
07E000
07E000
0EE000
0EE000
0EE000
0EE000
1CFF00
1CFF00
1CFF00
1CE000
38E000
3FE000
3FE000
7FE000
70E000
70FF80
70FF80
F0FF80
ENDCHAR
STARTCHAR 01FE
ENCODING 510
SWIDTH 400 0
DWIDTH 12 0
BBX 10 26 1 -1
BITMAP
0780
0E00
1C00
0000
3EC0
7FC0
FF80
F3C0
E3C0
E3C0
E3C0
E7C0
E7C0
EFC0
EDC0
EDC0
F9C0
F9C0
F1C0
F1C0
F1C0
F3C0
FFC0
FF80
FE00
4000
ENDCHAR
STARTCHAR 01FF
ENCODING 511
SWIDTH 400 0
DWIDTH 12 0
BBX 10 26 1 -1
BITMAP
0780
0E00
1C00
0000
3EC0
7FC0
FF80
F3C0
E3C0
E3C0
E3C0
E7C0
E7C0
EFC0
EDC0
EDC0
F9C0
F9C0
F1C0
F1C0
F1C0
F3C0
FFC0
FF80
FE00
4000
ENDCHAR
STARTCHAR 0218
ENCODING 536
SWIDTH 366 0
DWIDTH 11 0
BBX 10 26 1 -5
BITMAP
3E00
7F00
FF80
E380
E380
E380
E000
F000
7800
7C00
3E00
1F00
0780
0780
0380
E3C0
E380
E380
FF80
7F00
3E00
0000
1C00
1C00
1C00
1800
ENDCHAR
STARTCHAR 0219
ENCODING 537
SWIDTH 366 0
DWIDTH 11 0
BBX 10 26 1 -5
BITMAP
3E00
7F00
FF80
E380
E380
E380
E000
F000
7800
7C00
3E00
1F00
0780
0780
0380
E3C0
E380
E380
FF80
7F00
3E00
0000
1C00
1C00
1C00
1800
ENDCHAR
STARTCHAR 021A
ENCODING 538
SWIDTH 366 0
DWIDTH 11 0
BBX 11 26 0 -5
BITMAP
FFE0
FFE0
FFE0
0E00
0E00
0E00
0E00
0E00
0E00
0E00
0E00
0E00
0E00
0E00
0E00
0E00
0E00
0E00
0E00
0E00
0E00
0000
0E00
0E00
0E00
0C00
ENDCHAR
STARTCHAR 021B
ENCODING 539
SWIDTH 366 0
DWIDTH 11 0
BBX 11 26 0 -5
BITMAP
FFE0
FFE0
FFE0
0E00
0E00
0E00
0E00
0E00
0E00
0E00
0E00
0E00
0E00
0E00
0E00
0E00
0E00
0E00
0E00
0E00
0E00
0000
0E00
0E00
0E00
0C00
ENDCHAR
STARTCHAR 0237
ENCODING 567
SWIDTH 266 0
DWIDTH 8 0
BBX 7 21 0 0
BITMAP
0E
0E
0E
0E
0E
0E
0E
0E
0E
0E
0E
0E
0E
0E
0E
0E
1E
1E
FC
FC
F8
ENDCHAR
STARTCHAR 02BC
ENCODING 700
SWIDTH 0 0
DWIDTH 0 0
BBX 4 6 -2 15
BITMAP
F0
F0
F0
20
60
40
ENDCHAR
STARTCHAR 02C6
ENCODING 710
SWIDTH 500 0
DWIDTH 15 0
BBX 9 4 3 22
BITMAP
1C00
3E00
3600
E380
ENDCHAR
STARTCHAR 02C7
ENCODING 711
SWIDTH 500 0
DWIDTH 15 0
BBX 9 4 3 22
BITMAP
E380
7700
3E00
1C00
ENDCHAR
STARTCHAR 02C9
ENCODING 713
SWIDTH 500 0
DWIDTH 15 0
BBX 7 2 4 22
BITMAP
FE
FE
ENDCHAR
STARTCHAR 02D8
ENCODING 728
SWIDTH 500 0
DWIDTH 15 0
BBX 7 4 4 22
BITMAP
C6
C6
FE
78
ENDCHAR
STARTCHAR 02D9
ENCODING 729
SWIDTH 500 0
DWIDTH 15 0
BBX 3 3 6 22
BITMAP
E0
E0
E0
ENDCHAR
STARTCHAR 02DA
ENCODING 730
SWIDTH 500 0
DWIDTH 15 0
BBX 5 5 5 22
BITMAP
70
F8
D8
F8
70
ENDCHAR
STARTCHAR 02DB
ENCODING 731
SWIDTH 500 0
DWIDTH 15 0
BBX 5 4 5 -4
BITMAP
70
E0
F8
78
ENDCHAR
STARTCHAR 02DC
ENCODING 732
SWIDTH 500 0
DWIDTH 15 0
BBX 9 3 3 22
BITMAP
7980
7F00
CE00
ENDCHAR
STARTCHAR 02DD
ENCODING 733
SWIDTH 500 0
DWIDTH 15 0
BBX 10 3 4 22
BITMAP
7BC0
6700
CE00
ENDCHAR
STARTCHAR 0300
ENCODING 768
SWIDTH 0 0
DWIDTH 0 0
BBX 6 3 -4 22
BITMAP
F0
38
1C
ENDCHAR
STARTCHAR 0301
ENCODING 769
SWIDTH 0 0
DWIDTH 0 0
BBX 6 3 -2 22
BITMAP
3C
70
E0
ENDCHAR
STARTCHAR 0302
ENCODING 770
SWIDTH 0 0
DWIDTH 0 0
BBX 8 4 -4 22
BITMAP
3C
3C
7E
E7
ENDCHAR
STARTCHAR 0303
ENCODING 771
SWIDTH 0 0
DWIDTH 0 0
BBX 8 3 -4 22
BITMAP
73
FF
CE
ENDCHAR
STARTCHAR 0304
ENCODING 772
SWIDTH 0 0
DWIDTH 0 0
BBX 6 2 -3 22
BITMAP
FC
FC
ENDCHAR
STARTCHAR 0306
ENCODING 774
SWIDTH 0 0
DWIDTH 0 0
BBX 8 4 -4 22
BITMAP
C3
66
7E
3C
ENDCHAR
STARTCHAR 0307
ENCODING 775
SWIDTH 0 0
DWIDTH 0 0
BBX 4 3 -2 22
BITMAP
F0
F0
F0
ENDCHAR
STARTCHAR 0308
ENCODING 776
SWIDTH 0 0
DWIDTH 0 0
BBX 8 3 -4 22
BITMAP
E7
E7
E7
ENDCHAR
STARTCHAR 030A
ENCODING 778
SWIDTH 0 0
DWIDTH 0 0
BBX 6 5 -3 22
BITMAP
78
78
CC
78
78
ENDCHAR
STARTCHAR 030B
ENCODING 779
SWIDTH 0 0
DWIDTH 0 0
BBX 10 3 -4 22
BITMAP
3FC0
7300
E600
ENDCHAR
STARTCHAR 030C
ENCODING 780
SWIDTH 0 0
DWIDTH 0 0
BBX 8 4 -4 22
BITMAP
C3
66
7E
3C
ENDCHAR
STARTCHAR 0312
ENCODING 786
SWIDTH 0 0
DWIDTH 0 0
BBX 2 5 -1 22
BITMAP
40
C0
C0
C0
C0
ENDCHAR
STARTCHAR 0326
ENCODING 806
SWIDTH 0 0
DWIDTH 0 0
BBX 2 4 -1 -5
BITMAP
C0
C0
C0
C0
ENDCHAR
STARTCHAR 0327
ENCODING 807
SWIDTH 0 0
DWIDTH 0 0
BBX 6 5 -3 -4
BITMAP
30
30
1C
DC
F8
ENDCHAR
STARTCHAR 0328
ENCODING 808
SWIDTH 0 0
DWIDTH 0 0
BBX 4 4 -2 -4
BITMAP
60
C0
F0
F0
ENDCHAR
STARTCHAR 0335
ENCODING 821
SWIDTH 0 0
DWIDTH 0 0
BBX 6 3 -3 9
BITMAP
FC
FC
FC
ENDCHAR
STARTCHAR 0336
ENCODING 822
SWIDTH 0 0
DWIDTH 0 0
BBX 12 3 -6 9
BITMAP
FFF0
FFF0
FFF0
ENDCHAR
STARTCHAR 0337
ENCODING 823
SWIDTH 0 0
DWIDTH 0 0
BBX 10 23 -5 -1
BITMAP
0080
00C0
0080
0180
0180
0300
0300
0200
0600
0600
0C00
0C00
0C00
1800
1800
1000
3000
3000
6000
6000
4000
C000
4000
ENDCHAR
STARTCHAR 0338
ENCODING 824
SWIDTH 0 0
DWIDTH 0 0
BBX 10 23 -5 -1
BITMAP
0080
00C0
00C0
0180
0180
0380
0300
0300
0600
0600
0C00
0C00
0C00
1800
1800
3000
3000
7000
6000
6000
C000
C000
4000
ENDCHAR
STARTCHAR 0394
ENCODING 916
SWIDTH 400 0
DWIDTH 12 0
BBX 12 21 0 0
BITMAP
0F00
0F00
1F80
1F80
1F80
1F80
1B80
1B80
39C0
39C0
39C0
39C0
39C0
31C0
71E0
70E0
70E0
70E0
7FE0
7FE0
FFF0
ENDCHAR
STARTCHAR 03A9
ENCODING 937
SWIDTH 400 0
DWIDTH 12 0
BBX 10 21 1 0
BITMAP
1F00
7F80
7FC0
F3C0
E1C0
E1C0
E1C0
E1C0
E1C0
E1C0
E1C0
E1C0
E1C0
E1C0
E1C0
7380
7380
3300
FBC0
FBC0
FBC0
ENDCHAR
STARTCHAR 03BC
ENCODING 956
SWIDTH 400 0
DWIDTH 12 0
BBX 10 20 1 -5
BITMAP
F1C0
F1C0
F1C0
F1C0
F1C0
F1C0
F1C0
F1C0
F1C0
F1C0
F1C0
F3C0
FFC0
FFC0
FDC0
F000
F000
F000
F000
F000
ENDCHAR
STARTCHAR 03C0
ENCODING 960
SWIDTH 466 0
DWIDTH 14 0
BBX 13 15 0 0
BITMAP
FFF8
FFF8
FFF8
3CE0
3CE0
3CE0
3CE0
3CE0
3CE0
3CE0
3CE0
3CE0
3CE0
3CE0
3CE0
ENDCHAR
STARTCHAR 1E02
ENCODING 7682
SWIDTH 400 0
DWIDTH 12 0
BBX 10 25 1 0
BITMAP
1C00
1C00
1C00
0000
FF00
FF80
FFC0
F3C0
F1C0
F1C0
F1C0
F1C0
F3C0
FF80
FF80
FFC0
F1C0
F1C0
F1C0
F1C0
F1C0
F1C0
FFC0
FF80
FF00
ENDCHAR
STARTCHAR 1E03
ENCODING 7683
SWIDTH 400 0
DWIDTH 12 0
BBX 10 25 1 0
BITMAP
1C00
1C00
1C00
0000
FF00
FF80
FFC0
F3C0
F1C0
F1C0
F1C0
F1C0
F3C0
FF80
FF80
FFC0
F1C0
F1C0
F1C0
F1C0
F1C0
F1C0
FFC0
FF80
FF00
ENDCHAR
STARTCHAR 1E0A
ENCODING 7690
SWIDTH 400 0
DWIDTH 12 0
BBX 10 25 1 0
BITMAP
1C00
1C00
1C00
0000
FF00
FF80
FFC0
F3C0
F1C0
F1C0
F1C0
F1C0
F1C0
F1C0
F1C0
F1C0
F1C0
F1C0
F1C0
F1C0
F1C0
F3C0
FFC0
FF80
FF00
ENDCHAR
STARTCHAR 1E0B
ENCODING 7691
SWIDTH 400 0
DWIDTH 12 0
BBX 10 25 1 0
BITMAP
1C00
1C00
1C00
0000
FF00
FF80
FFC0
F3C0
F1C0
F1C0
F1C0
F1C0
F1C0
F1C0
F1C0
F1C0
F1C0
F1C0
F1C0
F1C0
F1C0
F3C0
FFC0
FF80
FF00
ENDCHAR
STARTCHAR 1E1E
ENCODING 7710
SWIDTH 333 0
DWIDTH 10 0
BBX 9 25 1 0
BITMAP
1C00
1C00
1C00
0000
FF80
FF80
FF80
F000
F000
F000
F000
F000
F000
FF00
FF00
FF00
F000
F000
F000
F000
F000
F000
F000
F000
F000
ENDCHAR
STARTCHAR 1E1F
ENCODING 7711
SWIDTH 333 0
DWIDTH 10 0
BBX 9 25 1 0
BITMAP
1C00
1C00
1C00
0000
FF80
FF80
FF80
F000
F000
F000
F000
F000
F000
FF00
FF00
FF00
F000
F000
F000
F000
F000
F000
F000
F000
F000
ENDCHAR
STARTCHAR 1E40
ENCODING 7744
SWIDTH 533 0
DWIDTH 16 0
BBX 14 25 1 0
BITMAP
0380
0380
0380
0000
F87C
F87C
F87C
F87C
FC7C
FCFC
FCFC
ECDC
ECDC
ECDC
ECDC
EEDC
EFDC
EF9C
E79C
E79C
E79C
E79C
E79C
E79C
E71C
ENDCHAR
STARTCHAR 1E41
ENCODING 7745
SWIDTH 533 0
DWIDTH 16 0
BBX 14 25 1 0
BITMAP
0380
0380
0380
0000
F87C
F87C
F87C
F87C
FC7C
FCFC
FCFC
ECDC
ECDC
ECDC
ECDC
EEDC
EFDC
EF9C
E79C
E79C
E79C
E79C
E79C
E79C
E71C
ENDCHAR
STARTCHAR 1E56
ENCODING 7766
SWIDTH 400 0
DWIDTH 12 0
BBX 10 25 1 0
BITMAP
1C00
1C00
1C00
0000
FF00
FF80
FF80
F3C0
F1C0
F1C0
F1C0
F1C0
F1C0
F3C0
FF80
FF80
FE00
F000
F000
F000
F000
F000
F000
F000
F000
ENDCHAR
STARTCHAR 1E57
ENCODING 7767
SWIDTH 400 0
DWIDTH 12 0
BBX 10 25 1 0
BITMAP
1C00
1C00
1C00
0000
FF00
FF80
FF80
F3C0
F1C0
F1C0
F1C0
F1C0
F1C0
F3C0
FF80
FF80
FE00
F000
F000
F000
F000
F000
F000
F000
F000
ENDCHAR
STARTCHAR 1E60
ENCODING 7776
SWIDTH 366 0
DWIDTH 11 0
BBX 10 25 1 0
BITMAP
1C00
1C00
1C00
0000
3E00
7F00
FF80
E380
E380
E380
E000
F000
7800
7C00
3E00
1F00
0780
0780
0380
E3C0
E380
E380
FF80
7F00
3E00
ENDCHAR
STARTCHAR 1E61
ENCODING 7777
SWIDTH 366 0
DWIDTH 11 0
BBX 10 25 1 0
BITMAP
1C00
1C00
1C00
0000
3E00
7F00
FF80
E380
E380
E380
E000
F000
7800
7C00
3E00
1F00
0780
0780
0380
E3C0
E380
E380
FF80
7F00
3E00
ENDCHAR
STARTCHAR 1E6A
ENCODING 7786
SWIDTH 366 0
DWIDTH 11 0
BBX 11 25 0 0
BITMAP
0E00
0E00
0E00
0000
FFE0
FFE0
FFE0
0E00
0E00
0E00
0E00
0E00
0E00
0E00
0E00
0E00
0E00
0E00
0E00
0E00
0E00
0E00
0E00
0E00
0E00
ENDCHAR
STARTCHAR 1E6B
ENCODING 7787
SWIDTH 366 0
DWIDTH 11 0
BBX 11 25 0 0
BITMAP
0E00
0E00
0E00
0000
FFE0
FFE0
FFE0
0E00
0E00
0E00
0E00
0E00
0E00
0E00
0E00
0E00
0E00
0E00
0E00
0E00
0E00
0E00
0E00
0E00
0E00
ENDCHAR
STARTCHAR 1E80
ENCODING 7808
SWIDTH 566 0
DWIDTH 17 0
BBX 16 25 0 0
BITMAP
0F00
0380
01C0
0000
F1C7
71C7
73E7
73E7
73E7
73E7
73E7
7367
7366
7366
3B6E
3B6E
3F7E
3F7E
3F7E
3F7E
3E3E
3E3E
3E3C
3E3C
1E3C
ENDCHAR
STARTCHAR 1E81
ENCODING 7809
SWIDTH 566 0
DWIDTH 17 0
BBX 16 25 0 0
BITMAP
0F00
0380
01C0
0000
F1C7
71C7
73E7
73E7
73E7
73E7
73E7
7367
7366
7366
3B6E
3B6E
3F7E
3F7E
3F7E
3F7E
3E3E
3E3E
3E3C
3E3C
1E3C
ENDCHAR
STARTCHAR 1E82
ENCODING 7810
SWIDTH 566 0
DWIDTH 17 0
BBX 16 25 0 0
BITMAP
00F0
00E0
01C0
0000
F1C7
71C7
73E7
73E7
73E7
73E7
73E7
7367
7366
7366
3B6E
3B6E
3F7E
3F7E
3F7E
3F7E
3E3E
3E3E
3E3C
3E3C
1E3C
ENDCHAR
STARTCHAR 1E83
ENCODING 7811
SWIDTH 566 0
DWIDTH 17 0
BBX 16 25 0 0
BITMAP
00F0
00E0
01C0
0000
F1C7
71C7
73E7
73E7
73E7
73E7
73E7
7367
7366
7366
3B6E
3B6E
3F7E
3F7E
3F7E
3F7E
3E3E
3E3E
3E3C
3E3C
1E3C
ENDCHAR
STARTCHAR 1E84
ENCODING 7812
SWIDTH 566 0
DWIDTH 17 0
BBX 16 25 0 0
BITMAP
0770
0770
0770
0000
F1C7
71C7
73E7
73E7
73E7
73E7
73E7
7367
7366
7366
3B6E
3B6E
3F7E
3F7E
3F7E
3F7E
3E3E
3E3E
3E3C
3E3C
1E3C
ENDCHAR
STARTCHAR 1E85
ENCODING 7813
SWIDTH 566 0
DWIDTH 17 0
BBX 16 25 0 0
BITMAP
0770
0770
0770
0000
F1C7
71C7
73E7
73E7
73E7
73E7
73E7
7367
7366
7366
3B6E
3B6E
3F7E
3F7E
3F7E
3F7E
3E3E
3E3E
3E3C
3E3C
1E3C
ENDCHAR
STARTCHAR 1E9E
ENCODING 7838
SWIDTH 400 0
DWIDTH 12 0
BBX 11 21 1 0
BITMAP
FFC0
FFC0
FFC0
F1C0
F3C0
F380
F380
F700
F700
F780
F7C0
F3C0
F1E0
F1E0
F1E0
F1E0
F1E0
F1C0
F7C0
F780
F700
ENDCHAR
STARTCHAR 1EF2
ENCODING 7922
SWIDTH 400 0
DWIDTH 12 0
BBX 12 25 0 0
BITMAP
3C00
0E00
0700
0000
F0F0
70E0
70E0
79C0
39C0
39C0
3F80
1F80
1F80
1F00
0F00
0F00
0F00
0F00
0F00
0F00
0F00
0F00
0F00
0F00
0F00
ENDCHAR
STARTCHAR 1EF3
ENCODING 7923
SWIDTH 400 0
DWIDTH 12 0
BBX 12 25 0 0
BITMAP
3C00
0E00
0700
0000
F0F0
70E0
70E0
79C0
39C0
39C0
3F80
1F80
1F80
1F00
0F00
0F00
0F00
0F00
0F00
0F00
0F00
0F00
0F00
0F00
0F00
ENDCHAR
STARTCHAR 2002
ENCODING 8194
SWIDTH 300 0
DWIDTH 9 0
BBX 0 0 0 0
BITMAP
ENDCHAR
STARTCHAR 2003
ENCODING 8195
SWIDTH 500 0
DWIDTH 15 0
BBX 0 0 0 0
BITMAP
ENDCHAR
STARTCHAR 2007
ENCODING 8199
SWIDTH 400 0
DWIDTH 12 0
BBX 0 0 0 0
BITMAP
ENDCHAR
STARTCHAR 2008
ENCODING 8200
SWIDTH 200 0
DWIDTH 6 0
BBX 0 0 0 0
BITMAP
ENDCHAR
STARTCHAR 200B
ENCODING 8203
SWIDTH 0 0
DWIDTH 0 0
BBX 0 0 0 0
BITMAP
ENDCHAR
STARTCHAR 2012
ENCODING 8210
SWIDTH 400 0
DWIDTH 12 0
BBX 12 3 0 9
BITMAP
FFF0
FFF0
FFF0
ENDCHAR
STARTCHAR 2013
ENCODING 8211
SWIDTH 300 0
DWIDTH 9 0
BBX 9 3 0 9
BITMAP
FF80
FF80
FF80
ENDCHAR
STARTCHAR 2014
ENCODING 8212
SWIDTH 500 0
DWIDTH 15 0
BBX 15 3 0 9
BITMAP
FFFE
FFFE
FFFE
ENDCHAR
STARTCHAR 2018
ENCODING 8216
SWIDTH 200 0
DWIDTH 6 0
BBX 4 7 1 14
BITMAP
30
60
60
60
E0
E0
E0
ENDCHAR
STARTCHAR 2019
ENCODING 8217
SWIDTH 200 0
DWIDTH 6 0
BBX 3 6 1 15
BITMAP
E0
E0
E0
60
60
C0
ENDCHAR
STARTCHAR 201A
ENCODING 8218
SWIDTH 200 0
DWIDTH 6 0
BBX 3 6 1 -3
BITMAP
E0
E0
E0
60
60
C0
ENDCHAR
STARTCHAR 201C
ENCODING 8220
SWIDTH 333 0
DWIDTH 10 0
BBX 8 7 1 14
BITMAP
33
63
66
66
E7
E7
E7
ENDCHAR
STARTCHAR 201D
ENCODING 8221
SWIDTH 333 0
DWIDTH 10 0
BBX 8 6 1 15
BITMAP
E7
E7
E7
62
66
CC
ENDCHAR
STARTCHAR 201E
ENCODING 8222
SWIDTH 333 0
DWIDTH 10 0
BBX 8 6 1 -3
BITMAP
E7
E7
E7
62
66
CE
ENDCHAR
STARTCHAR 2020
ENCODING 8224
SWIDTH 400 0
DWIDTH 12 0
BBX 10 24 1 -3
BITMAP
1E00
1E00
1E00
1E00
1E00
1E00
FFC0
FFC0
FFC0
1E00
1E00
1E00
1E00
1E00
1E00
1E00
1E00
1E00
1E00
1E00
1E00
1E00
1E00
1E00
ENDCHAR
STARTCHAR 2021
ENCODING 8225
SWIDTH 400 0
DWIDTH 12 0
BBX 10 24 1 -3
BITMAP
1E00
1E00
1E00
1E00
1E00
1E00
FFC0
FFC0
FFC0
1E00
1E00
1E00
1E00
1E00
1E00
1E00
FFC0
FFC0
FFC0
1E00
1E00
1E00
1E00
1E00
ENDCHAR
STARTCHAR 2022
ENCODING 8226
SWIDTH 300 0
DWIDTH 9 0
BBX 7 7 1 7
BITMAP
38
7C
FE
FE
FE
7C
38
ENDCHAR
STARTCHAR 2026
ENCODING 8230
SWIDTH 500 0
DWIDTH 15 0
BBX 13 3 1 0
BITMAP
E738
E738
E738
ENDCHAR
STARTCHAR 2030
ENCODING 8240
SWIDTH 833 0
DWIDTH 25 0
BBX 23 21 1 0
BITMAP
781800
CC3000
CC3000
CC7000
CC6000
CC6000
CCC000
CCC000
CCC000
4D8000
319818
03A626
036366
036366
066366
066366
0E6366
0C6366
0C6766
183E7E
183C3C
ENDCHAR
STARTCHAR 2039
ENCODING 8249
SWIDTH 200 0
DWIDTH 6 0
BBX 5 7 0 7
BITMAP
38
30
70
E0
70
30
38
ENDCHAR
STARTCHAR 203A
ENCODING 8250
SWIDTH 200 0
DWIDTH 6 0
BBX 4 7 1 7
BITMAP
C0
E0
70
70
70
E0
C0
ENDCHAR
STARTCHAR 2044
ENCODING 8260
SWIDTH 100 0
DWIDTH 3 0
BBX 10 21 -4 0
BITMAP
00C0
00C0
01C0
0180
0180
0300
0300
0700
0600
0600
0C00
0C00
1C00
1800
1800
3000
3000
3000
6000
6000
E000
ENDCHAR
STARTCHAR 2070
ENCODING 8304
SWIDTH 266 0
DWIDTH 8 0
BBX 6 13 1 11
BITMAP
78
FC
CC
CC
CC
CC
CC
CC
CC
CC
CC
FC
78
ENDCHAR
STARTCHAR 2074
ENCODING 8308
SWIDTH 266 0
DWIDTH 8 0
BBX 7 13 1 11
BITMAP
1C
1C
3C
3C
2C
6C
6C
CC
CC
FE
FE
0C
0C
ENDCHAR
STARTCHAR 2075
ENCODING 8309
SWIDTH 266 0
DWIDTH 8 0
BBX 6 13 1 11
BITMAP
FC
FC
C0
D8
FC
CC
CC
0C
0C
CC
CC
7C
78
ENDCHAR
STARTCHAR 2076
ENCODING 8310
SWIDTH 266 0
DWIDTH 8 0
BBX 6 13 1 11
BITMAP
78
FC
CC
C0
D8
FC
CC
CC
CC
CC
CC
FC
78
ENDCHAR
STARTCHAR 2077
ENCODING 8311
SWIDTH 266 0
DWIDTH 8 0
BBX 6 13 1 11
BITMAP
FC
FC
0C
0C
0C
18
18
18
30
30
30
60
60
ENDCHAR
STARTCHAR 2078
ENCODING 8312
SWIDTH 266 0
DWIDTH 8 0
BBX 7 13 1 11
BITMAP
78
FC
CC
CE
CC
7C
7C
CC
CC
CE
CC
FC
78
ENDCHAR
STARTCHAR 2079
ENCODING 8313
SWIDTH 266 0
DWIDTH 8 0
BBX 6 13 1 11
BITMAP
78
FC
CC
CC
CC
CC
FC
7C
0C
CC
CC
FC
78
ENDCHAR
STARTCHAR 2080
ENCODING 8320
SWIDTH 266 0
DWIDTH 8 0
BBX 6 13 1 -2
BITMAP
78
FC
CC
CC
CC
CC
CC
CC
CC
CC
CC
FC
78
ENDCHAR
STARTCHAR 2081
ENCODING 8321
SWIDTH 266 0
DWIDTH 8 0
BBX 4 13 2 -2
BITMAP
30
F0
F0
30
30
30
30
30
30
30
30
30
30
ENDCHAR
STARTCHAR 2082
ENCODING 8322
SWIDTH 266 0
DWIDTH 8 0
BBX 6 13 1 -2
BITMAP
78
FC
CC
CC
0C
0C
18
30
60
E0
C0
FC
FC
ENDCHAR
STARTCHAR 2083
ENCODING 8323
SWIDTH 266 0
DWIDTH 8 0
BBX 6 13 1 -2
BITMAP
78
FC
CC
CC
0C
38
3C
0C
0C
CC
CC
FC
78
ENDCHAR
STARTCHAR 2084
ENCODING 8324
SWIDTH 266 0
DWIDTH 8 0
BBX 7 13 1 -2
BITMAP
1C
1C
3C
3C
2C
6C
6C
CC
CC
FE
FE
0C
0C
ENDCHAR
STARTCHAR 2085
ENCODING 8325
SWIDTH 266 0
DWIDTH 8 0
BBX 6 13 1 -2
BITMAP
FC
FC
C0
D8
FC
CC
CC
0C
0C
CC
CC
7C
78
ENDCHAR
STARTCHAR 2086
ENCODING 8326
SWIDTH 266 0
DWIDTH 8 0
BBX 6 13 1 -2
BITMAP
78
FC
CC
C0
D8
FC
CC
CC
CC
CC
CC
FC
78
ENDCHAR
STARTCHAR 2087
ENCODING 8327
SWIDTH 266 0
DWIDTH 8 0
BBX 6 13 1 -2
BITMAP
FC
FC
0C
0C
0C
18
18
18
30
30
30
60
60
ENDCHAR
STARTCHAR 2088
ENCODING 8328
SWIDTH 266 0
DWIDTH 8 0
BBX 7 13 1 -2
BITMAP
78
FC
CC
CE
CC
7C
7C
CC
CC
CE
CC
FC
78
ENDCHAR
STARTCHAR 2089
ENCODING 8329
SWIDTH 266 0
DWIDTH 8 0
BBX 6 13 1 -2
BITMAP
78
FC
CC
CC
CC
CC
FC
7C
0C
CC
CC
FC
78
ENDCHAR
STARTCHAR 20AC
ENCODING 8364
SWIDTH 400 0
DWIDTH 12 0
BBX 10 21 1 0
BITMAP
1F00
7F80
7FC0
71C0
71C0
71C0
7000
FF00
FF00
7000
7000
FF00
FF00
7000
71C0
71C0
71C0
71C0
7FC0
3F80
1F00
ENDCHAR
STARTCHAR 20B9
ENCODING 8377
SWIDTH 400 0
DWIDTH 12 0
BBX 10 21 1 0
BITMAP
FFC0
FFC0
FFC0
0700
0700
FFC0
FFC0
FFC0
0700
FF00
FE00
FC00
F000
7800
3C00
3C00
1E00
0F00
0F00
0780
03C0
ENDCHAR
STARTCHAR 20BF
ENCODING 8383
SWIDTH 400 0
DWIDTH 12 0
BBX 10 24 1 -2
BITMAP
3600
3600
FF00
FF80
FFC0
73C0
71C0
71C0
71C0
73C0
7F80
7F00
7F80
73C0
71C0
71C0
71C0
71C0
71C0
FFC0
FF80
FF00
3600
3600
ENDCHAR
STARTCHAR 2113
ENCODING 8467
SWIDTH 400 0
DWIDTH 12 0
BBX 12 22 0 0
BITMAP
07C0
0FE0
1FE0
1CF0
1CF0
1CF0
1CE0
1CE0
1CE0
1DC0
1FC0
1F80
1F00
3E00
FC00
7CF0
7CF0
1CF0
1CF0
1FE0
0FE0
07C0
ENDCHAR
STARTCHAR 2116
ENCODING 8470
SWIDTH 666 0
DWIDTH 20 0
BBX 18 21 1 0
BITMAP
F1C000
F9C000
F9C000
F9C000
F9C000
F9C000
FDC000
FDC700
EDCF80
EDDCC0
EDD8C0
EFD8C0
EFD8C0
E7D8C0
E7D8C0
E7DDC0
E7CF80
E3C700
E3C000
E3DFC0
E3DFC0
ENDCHAR
STARTCHAR 2117
ENCODING 8471
SWIDTH 733 0
DWIDTH 22 0
BBX 21 22 1 0
BITMAP
01F800
07FF00
1E0780
3801C0
7000E0
61F860
E1FC70
C1CC30
C1CC30
C1CC30
C1CC30
C1FC38
C1F830
C1C030
C1C030
E1C070
61C060
71C0E0
3801C0
1E0780
07FF00
01F800
ENDCHAR
STARTCHAR 2120
ENCODING 8480
SWIDTH 600 0
DWIDTH 18 0
BBX 16 11 1 10
BITMAP
79C7
F9CF
CDEF
C1EF
E1EB
79AB
39AB
1DBB
CDBB
F9B3
7993
ENDCHAR
STARTCHAR 2122
ENCODING 8482
SWIDTH 600 0
DWIDTH 18 0
BBX 17 11 0 10
BITMAP
FEE380
FEE780
38F780
38F780
38F580
38F580
38D580
38DD80
38DD80
38D980
38D980
ENDCHAR
STARTCHAR 2126
ENCODING 8486
SWIDTH 400 0
DWIDTH 12 0
BBX 10 21 1 0
BITMAP
1F00
7F80
7FC0
F3C0
E1C0
E1C0
E1C0
E1C0
E1C0
E1C0
E1C0
E1C0
E1C0
E1C0
E1C0
7380
7380
3300
FBC0
FBC0
FBC0
ENDCHAR
STARTCHAR 212E
ENCODING 8494
SWIDTH 833 0
DWIDTH 25 0
BBX 23 22 1 0
BITMAP
00FE00
038380
0E00C0
180020
300010
300018
70001C
70001C
F0001C
F0001E
F0001E
FFFFFE
F00000
F00000
700000
700000
300000
300000
180030
0C0060
030180
00FE00
ENDCHAR
STARTCHAR 2153
ENCODING 8531
SWIDTH 666 0
DWIDTH 20 0
BBX 16 21 2 0
BITMAP
3018
3030
F030
3070
3060
3060
30C0
30CE
31DF
31B3
31B3
3303
3303
030F
060F
0603
0E03
0C33
0C33
183F
181E
ENDCHAR
STARTCHAR 2154
ENCODING 8532
SWIDTH 666 0
DWIDTH 20 0
BBX 17 21 1 0
BITMAP
780C00
FC1800
CC1800
CC3800
CC3000
0C3000
186000
386700
70EF80
60D980
C0D980
C18180
FD8180
FD8780
030780
030180
070180
061980
061980
0C1F80
0C0F00
ENDCHAR
STARTCHAR 215B
ENCODING 8539
SWIDTH 666 0
DWIDTH 20 0
BBX 17 21 2 0
BITMAP
301800
303000
F03000
307000
306000
306000
30C000
30CE00
31DF00
31B380
31B180
333180
333300
031F00
061F00
063300
0E3180
0C3180
0C3380
183F00
181E00
ENDCHAR
STARTCHAR 215C
ENCODING 8540
SWIDTH 666 0
DWIDTH 20 0
BBX 18 21 1 0
BITMAP
780C00
FC1800
CC1800
CC3800
0C3000
0C3000
386000
3C6700
0CEF80
0CD9C0
CCD8C0
CD98C0
FD9980
798F80
030F80
031980
0718C0
0618C0
0619C0
0C1F80
0C0F00
ENDCHAR
STARTCHAR 215D
ENCODING 8541
SWIDTH 666 0
DWIDTH 20 0
BBX 18 21 1 0
BITMAP
FC0C00
FC1800
C01800
C03800
D83000
FC3000
CC6000
0C6700
0CEF80
CCD9C0
CCD8C0
FD98C0
799980
018F80
030F80
031980
0718C0
0618C0
0619C0
0C1F80
0C0F00
ENDCHAR
STARTCHAR 215E
ENCODING 8542
SWIDTH 666 0
DWIDTH 20 0
BBX 18 21 1 0
BITMAP
FC0C00
FC1800
0C1800
0C3800
1C3000
183000
186000
186700
30EF80
30D9C0
30D8C0
6198C0
619980
018F80
030F80
031980
0718C0
0618C0
0619C0
0C1F80
0C0F00
ENDCHAR
STARTCHAR 2202
ENCODING 8706
SWIDTH 433 0
DWIDTH 13 0
BBX 11 22 1 0
BITMAP
0F00
3FC0
3FC0
79E0
71E0
71E0
01E0
01E0
19E0
7FE0
7FC0
F3C0
F1C0
F1C0
E1C0
E1C0
E1C0
E1C0
E3C0
FF80
7F80
3E00
ENDCHAR
STARTCHAR 2205
ENCODING 8709
SWIDTH 733 0
DWIDTH 22 0
BBX 18 19 2 1
BITMAP
03F080
0FFDC0
3FFFC0
3C0F80
780F80
F01FC0
E03DC0
E079C0
E0F1C0
E1E1C0
E3C1C0
E781C0
EF01C0
FE03C0
7C0780
7C0F00
FFFF00
EFFC00
43F000
ENDCHAR
STARTCHAR 2206
ENCODING 8710
SWIDTH 400 0
DWIDTH 12 0
BBX 12 21 0 0
BITMAP
0F00
0F00
1F80
1F80
1F80
1F80
1B80
1B80
39C0
39C0
39C0
39C0
39C0
31C0
71E0
70E0
70E0
70E0
7FE0
7FE0
FFF0
ENDCHAR
STARTCHAR 220F
ENCODING 8719
SWIDTH 466 0
DWIDTH 14 0
BBX 11 26 1 -5
BITMAP
FFE0
FFE0
FFE0
F0E0
F0E0
F0E0
F0E0
F0E0
F0E0
F0E0
F0E0
F0E0
F0E0
F0E0
F0E0
F0E0
F0E0
F0E0
F0E0
F0E0
F0E0
F0E0
F0E0
F0E0
F0E0
F0E0
ENDCHAR
STARTCHAR 2211
ENCODING 8721
SWIDTH 400 0
DWIDTH 12 0
BBX 11 26 1 -5
BITMAP
FFE0
FFE0
FFE0
F000
7000
7800
3800
3C00
1C00
1E00
0E00
0F00
0700
0780
0700
0E00
1E00
1C00
3C00
3800
7800
7000
F000
FFE0
FFE0
FFE0
ENDCHAR
STARTCHAR 2212
ENCODING 8722
SWIDTH 400 0
DWIDTH 12 0
BBX 10 2 1 9
BITMAP
FFC0
FFC0
ENDCHAR
STARTCHAR 2215
ENCODING 8725
SWIDTH 400 0
DWIDTH 12 0
BBX 10 21 1 0
BITMAP
00C0
01C0
0180
0180
0380
0300
0700
0600
0600
0E00
0C00
1C00
1800
1800
3800
3000
7000
6000
6000
E000
C000
ENDCHAR
STARTCHAR 2219
ENCODING 8729
SWIDTH 233 0
DWIDTH 7 0
BBX 4 4 1 9
BITMAP
F0
F0
F0
F0
ENDCHAR
STARTCHAR 221A
ENCODING 8730
SWIDTH 466 0
DWIDTH 14 0
BBX 14 23 0 -2
BITMAP
001C
001C
0018
0018
0038
0038
0030
0030
0070
0070
F860
F860
1CE0
1CE0
1CC0
1CC0
1CC0
0FC0
0FC0
0F80
0F80
0780
0780
ENDCHAR
STARTCHAR 221E
ENCODING 8734
SWIDTH 633 0
DWIDTH 19 0
BBX 18 10 1 5
BITMAP
3C1E00
7F7F00
E37380
E3E180
C1C180
C1C1C0
E1E180
E3F380
7F3F00
3C1E00
ENDCHAR
STARTCHAR 222B
ENCODING 8747
SWIDTH 400 0
DWIDTH 12 0
BBX 8 28 2 -5
BITMAP
0F
1F
1F
3C
3C
3C
3C
3C
3C
3C
3C
3C
3C
3C
3C
3C
3C
3C
3C
3C
3C
3C
3C
3C
3C
F8
F8
F0
ENDCHAR
STARTCHAR 2248
ENCODING 8776
SWIDTH 400 0
DWIDTH 12 0
BBX 12 10 0 6
BITMAP
1820
3E70
7FE0
E7C0
41C0
0000
3C70
7FE0
FFE0
63C0
ENDCHAR
STARTCHAR 2260
ENCODING 8800
SWIDTH 400 0
DWIDTH 12 0
BBX 10 12 1 5
BITMAP
01C0
0180
0380
FFC0
FFC0
0E00
0C00
1C00
FFC0
FFC0
7000
E000
ENDCHAR
STARTCHAR 2264
ENCODING 8804
SWIDTH 400 0
DWIDTH 12 0
BBX 9 11 1 5
BITMAP
0180
0F80
7F00
F800
F800
3F00
0F80
0180
0000
FF80
FF80
ENDCHAR
STARTCHAR 2265
ENCODING 8805
SWIDTH 400 0
DWIDTH 12 0
BBX 9 11 2 5
BITMAP
C000
F800
7F00
0F80
0F80
7E00
F800
C000
0000
FF80
FF80
ENDCHAR
STARTCHAR 25CA
ENCODING 9674
SWIDTH 400 0
DWIDTH 12 0
BBX 10 22 1 0
BITMAP
0C00
0C00
0C00
1E00
1E00
3F00
3300
7380
7380
E1C0
E1C0
C0C0
E1C0
6180
7380
3380
3300
3F00
1E00
1E00
0C00
0C00
ENDCHAR
STARTCHAR 25CB
ENCODING 9675
SWIDTH 733 0
DWIDTH 22 0
BBX 21 22 1 0
BITMAP
01F800
07FF00
1E0780
3801C0
7000E0
600060
E00070
C00030
C00030
C00030
C00030
C00038
C00030
C00030
C00030
E00070
600060
7000E0
3801C0
1E0780
07FF00
01F800
ENDCHAR
STARTCHAR E0FF
ENCODING 57599
SWIDTH 500 0
DWIDTH 15 0
BBX 0 0 0 0
BITMAP
ENDCHAR
STARTCHAR EFFD
ENCODING 61437
SWIDTH 500 0
DWIDTH 15 0
BBX 0 0 0 0
BITMAP
ENDCHAR
STARTCHAR F000
ENCODING 61440
SWIDTH 500 0
DWIDTH 15 0
BBX 0 0 0 0
BITMAP
ENDCHAR
STARTCHAR F8FF
ENCODING 63743
SWIDTH 633 0
DWIDTH 19 0
BBX 17 17 1 1
BITMAP
007800
007800
007800
0FFF80
3FFF80
7FFF80
FFFF80
FFFF80
F87800
F87800
F07800
F8F800
FFF800
FFF800
7FF000
3FE000
0F8000
ENDCHAR
ENDFONT
